<?xml version="1.0" encoding="UTF-8" standalone="no"?>
<svg width="87" height="105" viewBox="0 0 87 105" fill="none" xmlns="http://www.w3.org/2000/svg">
<mask id="mask0_25_3" style="mask-type:luminance" maskUnits="userSpaceOnUse" x="0" y="0" width="87" height="105">
<path d="M86.2032 0.94989H0.796814V104.05H86.2032V0.94989Z" fill="white"/>
</mask>
<g mask="url(#mask0_25_3)">
<path d="M75.5468 89.5773L74.8577 87.6818L74.4014 86.4065L74.3768 86.3481V86.3246L45.0227 5.05654C45.011 5.03314 45.011 5.00975 44.9993 4.99805C44.9876 4.98635 44.9865 4.97465 44.9865 4.96295H44.9747C44.9642 4.93955 44.9642 4.93955 44.9642 4.92785C44.965 4.92151 44.9643 4.91504 44.9623 4.90897C44.9604 4.90289 44.957 4.89738 44.9526 4.89276V4.88105C44.9444 4.86682 44.9404 4.85062 44.9408 4.83424L44.9291 4.82256L43.5485 0.996643L73.6994 31.1476C81.3752 38.8283 85.8382 49.1437 86.1814 59.9969C86.5245 70.8502 82.7221 81.427 75.5468 89.5773Z" fill="#FF0000"/>
<path d="M43.4539 0.996643L42.0745 4.82256C42.0636 4.84493 42.0554 4.86848 42.0499 4.89276C42.0492 4.90153 42.0455 4.90977 42.0394 4.91615C42.0398 4.93253 42.0359 4.94873 42.0277 4.96295H42.016L41.9914 5.05654H41.9797L12.6841 86.1726C12.6679 86.2206 12.6483 86.2675 12.6256 86.313C12.6158 86.3357 12.6076 86.3592 12.601 86.3832V86.3949L12.5905 86.4065L11.4556 89.5656C7.30212 84.85 4.24046 79.276 2.48904 73.2411C0.737626 67.2062 0.339628 60.8592 1.32343 54.6528V54.6293C1.33396 54.6176 1.33397 54.6176 1.33397 54.6059C2.73877 45.716 6.93027 37.5018 13.3042 31.1476L43.42 1.03174L43.4539 0.996643Z" fill="#B40909"/>
<path d="M75.5469 89.5773C74.9502 90.2442 74.3429 90.8994 73.6994 91.5429C69.7373 95.5131 65.0301 98.6617 59.8479 100.808C54.6658 102.954 49.1109 104.056 43.5018 104.05V0.94989L43.5486 0.996664L44.9292 4.82258L44.9409 4.83426C44.9404 4.85064 44.9444 4.86685 44.9526 4.88107V4.89278C44.957 4.89741 44.9603 4.90292 44.9624 4.90899C44.9644 4.91506 44.9651 4.92153 44.9643 4.92787C44.9643 4.93957 44.9643 4.93957 44.9748 4.96297L44.9994 4.99807C45.0111 5.00977 45.0111 5.03316 45.0228 5.05656L74.3769 86.3247V86.3481L74.4014 86.4066L74.8577 87.6819L75.5469 89.5773Z" fill="#FF0000"/>
<path d="M43.5022 0.94989V104.05C37.8925 104.061 32.336 102.961 27.1533 100.815C21.9705 98.668 17.2639 95.5169 13.3046 91.5429C12.6599 90.8994 12.0526 90.2442 11.4559 89.5773V89.5656L12.5909 86.4066L12.6014 86.3949V86.3832C12.6079 86.3592 12.616 86.3358 12.626 86.313C12.6486 86.2676 12.6681 86.2206 12.6845 86.1726L41.9801 5.05656H41.9918C42.0075 5.02689 42.0196 4.99549 42.028 4.96297C42.0361 4.94876 42.0402 4.93254 42.0397 4.91616C42.0457 4.9098 42.0495 4.90155 42.0503 4.89278C42.0557 4.86851 42.0638 4.84495 42.0747 4.82258L43.4543 0.996664L43.5022 0.94989Z" fill="#870202"/>
<g style="mix-blend-mode:overlay">
<path d="M42.0499 4.88806C42.0364 4.94465 42.0169 4.99956 41.9914 5.05184C41.851 5.53154 41.5012 6.68985 40.9735 8.38635C40.2493 10.6444 39.2548 13.8854 37.9666 17.7464C36.7042 21.6191 35.182 26.1119 33.5206 30.9089C32.6782 33.3074 31.8112 35.7878 30.9337 38.3032C30.034 40.8187 29.1202 43.3693 28.2088 45.9316C26.3473 51.0211 24.4987 56.1106 22.6981 60.8608C20.8975 65.611 19.1998 70.0453 17.701 73.8361C16.2023 77.6269 14.9164 80.7508 14.0284 82.9504C13.3498 84.6001 12.8807 85.7116 12.6829 86.1679L41.9785 5.05184C41.9968 4.99499 42.0206 4.94013 42.0499 4.88806Z" fill="white"/>
</g>
<g style="mix-blend-mode:overlay">
<path d="M74.377 86.3365C74.2495 86.0557 73.7464 84.8623 72.9625 82.9552C72.085 80.7556 70.7746 77.6317 69.2887 73.8409C67.8028 70.0501 66.0946 65.6275 64.3045 60.8656C62.5144 56.1037 60.6413 51.026 58.7821 45.9365C57.8695 43.3742 56.9569 40.8236 56.0677 38.3081C55.1785 35.7926 54.3127 33.3122 53.482 30.9137C51.8089 26.1167 50.2997 21.6239 49.0244 17.7512C47.7491 13.8785 46.7546 10.6493 46.0163 8.39123C45.4559 6.54263 45.0932 5.34923 44.975 4.96313C44.9645 4.92803 44.9528 4.91634 44.9528 4.89294C44.9821 4.94482 45.0056 4.99973 45.023 5.05672L74.377 86.3365Z" fill="white"/>
</g>
<g style="mix-blend-mode:overlay">
<path d="M44.4378 52.1841C44.4015 58.2915 44.3898 64.3872 44.3091 70.1202C44.2283 75.8532 44.0751 81.1884 43.9932 85.763C43.9113 90.3377 43.7124 94.1636 43.6422 96.8312C43.5825 98.165 43.5369 99.218 43.5018 99.9317V4.42006C43.5369 3.71806 43.5486 3.33197 43.5486 3.33197C43.5486 3.33197 43.6059 4.85299 43.7241 7.52059C43.7943 10.1999 43.9815 14.0141 44.0634 18.5888C44.1453 23.1635 44.2857 28.5103 44.3442 34.2433C44.3676 37.0981 44.3898 40.0582 44.4144 43.0651C44.4144 46.072 44.4261 49.1304 44.4378 52.1841Z" fill="white"/>
</g>
<g style="mix-blend-mode:screen" opacity="0.4">
<path d="M43.4199 1.02698C43.1157 1.43648 40.5288 4.78269 36.4818 9.38078C35.4159 10.6093 34.2459 11.9314 32.9823 13.3119C31.7187 14.6925 30.4083 16.155 29.0043 17.6175C27.6003 19.08 26.1729 20.6478 24.6753 22.1688C23.1777 23.6898 21.6556 25.2459 20.1357 26.7903C18.5785 28.3113 17.0341 29.8323 15.5131 31.3299C14.7537 32.067 14.0049 32.8041 13.2678 33.5295C12.5892 34.2432 11.9212 34.9569 11.2906 35.7174C10.0742 37.1666 8.93388 38.678 7.87417 40.2453C6.87967 41.7546 6.02557 43.2522 5.27677 44.6562C4.08782 46.9568 3.07104 49.3424 2.23479 51.7932C1.94228 52.6941 1.68371 53.4078 1.54331 53.8992C1.43957 54.2619 1.36936 54.4959 1.3327 54.6012C2.7375 45.7113 6.92901 37.4971 13.3029 31.1427L43.4199 1.02698Z" fill="white"/>
</g>
<g style="mix-blend-mode:multiply" opacity="0.25">
<path d="M77.4787 89.9284L77.5021 90.0103L76.9054 90.6304L76.8352 90.7005L77.1628 89.0157L77.4787 89.9284Z" fill="black"/>
</g>
<g style="mix-blend-mode:multiply" opacity="0.25">
<path d="M75.5467 89.5773C74.95 90.2442 74.3428 90.8994 73.6993 91.5429C67.7579 97.4753 60.2023 101.528 51.9737 103.197C43.7452 104.865 35.2076 104.076 27.4247 100.926C31.5778 102.268 35.8986 103.02 40.2607 103.161C41.3488 103.196 42.4241 103.173 43.5016 103.138C44.5546 103.079 45.6895 103.021 46.7191 102.88C47.7721 102.787 48.8368 102.588 49.8887 102.4C50.9311 102.19 51.9724 101.956 53.0125 101.687C54.0316 101.394 55.06 101.125 56.0674 100.751C57.0736 100.411 58.0564 99.9902 59.0263 99.5925C59.9986 99.1362 60.958 98.715 61.894 98.2119C62.8417 97.7439 63.7543 97.1823 64.654 96.6441C65.5561 96.0708 66.4336 95.4858 67.2748 94.854C68.1161 94.2222 68.9491 93.567 69.7564 92.8767L70.9486 91.8354L72.0847 90.7356L72.3772 90.4665L72.4813 90.3612L72.6217 90.2091L73.1845 89.6124L74.1907 88.5243L74.2609 88.4424C74.4586 88.185 74.6575 87.9393 74.8576 87.6819C75.5245 86.8512 76.1914 86.0322 76.8232 85.1898C77.5486 84.0198 78.3442 82.8849 79.0345 81.6915C79.6534 80.463 80.3788 79.2813 80.9182 78.0177L81.7009 76.0989L82.0999 75.1395C82.2169 74.8236 82.3105 74.4843 82.4146 74.1567C82.8668 72.8509 83.2379 71.5185 83.5261 70.167L83.959 68.1429C84.0967 67.4663 84.1982 66.7828 84.2632 66.0954L84.5218 64.0362C84.5686 63.3459 84.5686 62.6439 84.6025 61.9536C84.6142 61.2633 84.6739 60.573 84.6505 59.871L84.5218 57.8001C84.4657 56.4073 84.3171 55.0197 84.0772 53.6466L83.9368 52.617C83.8666 52.2777 83.7847 51.9384 83.7028 51.5991L83.2219 49.5633C83.0644 48.8811 82.8655 48.209 82.6264 47.5509L81.97 45.5502C81.502 44.2398 80.8819 42.9762 80.3449 41.6775L78.3313 37.9569C77.5357 36.7869 76.7647 35.5935 75.9457 34.4352C75.0436 33.3354 74.1661 32.2122 73.243 31.1124L70.3999 27.8481L73.6993 31.1475C81.3751 38.8283 85.8381 49.1436 86.1812 59.9969C86.5243 70.8502 82.722 81.4269 75.5467 89.5773Z" fill="black"/>
</g>
</g>
</svg>
