<?xml version="1.0" encoding="UTF-8" standalone="no"?>
<svg width="566" height="325" viewBox="0 0 566 325" fill="none" xmlns="http://www.w3.org/2000/svg">
<mask id="mask0_37_5" style="mask-type:luminance" maskUnits="userSpaceOnUse" x="0" y="110" width="87" height="105">
<path d="M86.2032 110.95H0.796814V214.05H86.2032V110.95Z" fill="white"/>
</mask>
<g mask="url(#mask0_37_5)">
<path d="M75.5468 199.577L74.8577 197.682L74.4014 196.406L74.3768 196.348V196.325L45.0227 115.057C45.011 115.033 45.011 115.01 44.9993 114.998C44.9876 114.986 44.9865 114.975 44.9865 114.963H44.9747C44.9642 114.94 44.9642 114.94 44.9642 114.928C44.965 114.922 44.9643 114.915 44.9623 114.909C44.9604 114.903 44.957 114.897 44.9526 114.893V114.881C44.9444 114.867 44.9404 114.851 44.9408 114.834L44.9291 114.823L43.5485 110.997L73.6994 141.148C81.3752 148.828 85.8382 159.144 86.1814 169.997C86.5245 180.85 82.7221 191.427 75.5468 199.577Z" fill="#FF0000"/>
<path d="M43.4539 110.997L42.0745 114.823C42.0636 114.845 42.0554 114.868 42.0499 114.893C42.0492 114.902 42.0455 114.91 42.0394 114.916C42.0398 114.933 42.0359 114.949 42.0277 114.963H42.016L41.9914 115.057H41.9797L12.6841 196.173C12.6679 196.221 12.6483 196.267 12.6256 196.313C12.6158 196.336 12.6076 196.359 12.601 196.383V196.395L12.5905 196.406L11.4556 199.566C7.30212 194.85 4.24046 189.276 2.48904 183.241C0.737626 177.206 0.339628 170.859 1.32343 164.653V164.629C1.33396 164.618 1.33397 164.618 1.33397 164.606C2.73877 155.716 6.93027 147.502 13.3042 141.148L43.42 111.032L43.4539 110.997Z" fill="#B40909"/>
<path d="M75.5469 199.577C74.9502 200.244 74.3429 200.899 73.6994 201.543C69.7373 205.513 65.0301 208.662 59.8479 210.808C54.6658 212.954 49.1109 214.056 43.5018 214.05V110.95L43.5486 110.997L44.9292 114.823L44.9409 114.834C44.9404 114.851 44.9444 114.867 44.9526 114.881V114.893C44.957 114.897 44.9603 114.903 44.9624 114.909C44.9644 114.915 44.9651 114.922 44.9643 114.928C44.9643 114.94 44.9643 114.94 44.9748 114.963L44.9994 114.998C45.0111 115.01 45.0111 115.033 45.0228 115.057L74.3769 196.325V196.348L74.4014 196.407L74.8577 197.682L75.5469 199.577Z" fill="#FF0000"/>
<path d="M43.5022 110.95V214.05C37.8925 214.061 32.336 212.961 27.1533 210.815C21.9705 208.668 17.2639 205.517 13.3046 201.543C12.6599 200.899 12.0526 200.244 11.4559 199.577V199.566L12.5909 196.407L12.6014 196.395V196.383C12.6079 196.359 12.616 196.336 12.626 196.313C12.6486 196.268 12.6681 196.221 12.6845 196.173L41.9801 115.057H41.9918C42.0075 115.027 42.0196 114.995 42.028 114.963C42.0361 114.949 42.0402 114.933 42.0397 114.916C42.0457 114.91 42.0495 114.902 42.0503 114.893C42.0557 114.869 42.0638 114.845 42.0747 114.823L43.4543 110.997L43.5022 110.95Z" fill="#870202"/>
<g style="mix-blend-mode:overlay">
<path d="M42.0499 114.888C42.0364 114.945 42.0169 115 41.9914 115.052C41.851 115.532 41.5012 116.69 40.9735 118.386C40.2493 120.644 39.2548 123.885 37.9666 127.746C36.7042 131.619 35.182 136.112 33.5206 140.909C32.6782 143.307 31.8112 145.788 30.9337 148.303C30.034 150.819 29.1202 153.369 28.2088 155.932C26.3473 161.021 24.4987 166.111 22.6981 170.861C20.8975 175.611 19.1998 180.045 17.701 183.836C16.2023 187.627 14.9164 190.751 14.0284 192.95C13.3498 194.6 12.8807 195.712 12.6829 196.168L41.9785 115.052C41.9968 114.995 42.0206 114.94 42.0499 114.888Z" fill="white"/>
</g>
<g style="mix-blend-mode:overlay">
<path d="M74.377 196.337C74.2495 196.056 73.7464 194.862 72.9625 192.955C72.085 190.756 70.7746 187.632 69.2887 183.841C67.8028 180.05 66.0946 175.628 64.3045 170.866C62.5144 166.104 60.6413 161.026 58.7821 155.936C57.8695 153.374 56.9569 150.824 56.0677 148.308C55.1785 145.793 54.3127 143.312 53.482 140.914C51.8089 136.117 50.2997 131.624 49.0244 127.751C47.7491 123.879 46.7546 120.649 46.0163 118.391C45.4559 116.543 45.0932 115.349 44.975 114.963C44.9645 114.928 44.9528 114.916 44.9528 114.893C44.9821 114.945 45.0056 115 45.023 115.057L74.377 196.337Z" fill="white"/>
</g>
<g style="mix-blend-mode:overlay">
<path d="M44.4378 162.184C44.4015 168.291 44.3898 174.387 44.3091 180.12C44.2283 185.853 44.0751 191.188 43.9932 195.763C43.9113 200.338 43.7124 204.164 43.6422 206.831C43.5825 208.165 43.5369 209.218 43.5018 209.932V114.42C43.5369 113.718 43.5486 113.332 43.5486 113.332C43.5486 113.332 43.6059 114.853 43.7241 117.521C43.7943 120.2 43.9815 124.014 44.0634 128.589C44.1453 133.163 44.2857 138.51 44.3442 144.243C44.3676 147.098 44.3898 150.058 44.4144 153.065C44.4144 156.072 44.4261 159.13 44.4378 162.184Z" fill="white"/>
</g>
<g style="mix-blend-mode:screen" opacity="0.4">
<path d="M43.4199 111.027C43.1157 111.436 40.5288 114.783 36.4818 119.381C35.4159 120.609 34.2459 121.931 32.9823 123.312C31.7187 124.693 30.4083 126.155 29.0043 127.618C27.6003 129.08 26.1729 130.648 24.6753 132.169C23.1777 133.69 21.6556 135.246 20.1357 136.79C18.5785 138.311 17.0341 139.832 15.5131 141.33C14.7537 142.067 14.0049 142.804 13.2678 143.53C12.5892 144.243 11.9212 144.957 11.2906 145.717C10.0742 147.167 8.93388 148.678 7.87417 150.245C6.87967 151.755 6.02557 153.252 5.27677 154.656C4.08782 156.957 3.07104 159.342 2.23479 161.793C1.94228 162.694 1.68371 163.408 1.54331 163.899C1.43957 164.262 1.36936 164.496 1.3327 164.601C2.7375 155.711 6.92901 147.497 13.3029 141.143L43.4199 111.027Z" fill="white"/>
</g>
<g style="mix-blend-mode:multiply" opacity="0.25">
<path d="M77.4787 199.928L77.5021 200.01L76.9054 200.63L76.8352 200.701L77.1628 199.016L77.4787 199.928Z" fill="black"/>
</g>
<g style="mix-blend-mode:multiply" opacity="0.25">
<path d="M75.5467 199.577C74.95 200.244 74.3428 200.899 73.6993 201.543C67.7579 207.475 60.2023 211.528 51.9737 213.197C43.7452 214.865 35.2076 214.076 27.4247 210.926C31.5778 212.268 35.8986 213.02 40.2607 213.161C41.3488 213.196 42.4241 213.173 43.5016 213.138C44.5546 213.079 45.6895 213.021 46.7191 212.88C47.7721 212.787 48.8368 212.588 49.8887 212.4C50.9311 212.19 51.9724 211.956 53.0125 211.687C54.0316 211.394 55.06 211.125 56.0674 210.751C57.0736 210.411 58.0564 209.99 59.0263 209.592C59.9986 209.136 60.958 208.715 61.894 208.212C62.8417 207.744 63.7543 207.182 64.654 206.644C65.5561 206.071 66.4336 205.486 67.2748 204.854C68.1161 204.222 68.9491 203.567 69.7564 202.877L70.9486 201.835L72.0847 200.736L72.3772 200.466L72.4813 200.361L72.6217 200.209L73.1845 199.612L74.1907 198.524L74.2609 198.442C74.4586 198.185 74.6575 197.939 74.8576 197.682C75.5245 196.851 76.1914 196.032 76.8232 195.19C77.5486 194.02 78.3442 192.885 79.0345 191.691C79.6534 190.463 80.3788 189.281 80.9182 188.018L81.7009 186.099L82.0999 185.139C82.2169 184.824 82.3105 184.484 82.4146 184.157C82.8668 182.851 83.2379 181.518 83.5261 180.167L83.959 178.143C84.0967 177.466 84.1982 176.783 84.2632 176.095L84.5218 174.036C84.5686 173.346 84.5686 172.644 84.6025 171.954C84.6142 171.263 84.6739 170.573 84.6505 169.871L84.5218 167.8C84.4657 166.407 84.3171 165.02 84.0772 163.647L83.9368 162.617C83.8666 162.278 83.7847 161.938 83.7028 161.599L83.2219 159.563C83.0644 158.881 82.8655 158.209 82.6264 157.551L81.97 155.55C81.502 154.24 80.8819 152.976 80.3449 151.678L78.3313 147.957C77.5357 146.787 76.7647 145.594 75.9457 144.435C75.0436 143.335 74.1661 142.212 73.243 141.112L70.3999 137.848L73.6993 141.148C81.3751 148.828 85.8381 159.144 86.1812 169.997C86.5243 180.85 82.722 191.427 75.5467 199.577Z" fill="black"/>
</g>
</g>
<path d="M25.0877 168.964C24.6733 168.783 24.5566 168.488 24.7376 168.08L29.4167 157.675C29.5776 157.332 29.829 157.165 30.1708 157.176L30.2158 157.178C30.5571 157.207 30.7854 157.388 30.9009 157.722L34.9565 168.404C35.1113 168.823 34.9821 169.11 34.569 169.265C34.1501 169.414 33.866 169.284 33.7168 168.878L32.7442 166.325L27.0501 166.145L25.9537 168.631C25.7729 169.034 25.4842 169.145 25.0877 168.964ZM27.6137 164.839L32.2464 164.986L30.0774 159.271L27.6137 164.839ZM40.8485 169.527C39.4992 169.484 38.5138 169.135 37.8922 168.479C37.2769 167.817 36.9906 166.811 37.0334 165.462L37.1646 161.324C37.2077 159.963 37.5571 158.977 38.2128 158.368C38.8746 157.752 39.877 157.472 41.2199 157.527L43.3879 157.595C44.7372 157.638 45.7196 157.987 46.3351 158.643C46.9507 159.299 47.2369 160.305 47.194 161.66L47.0634 165.78C47.0206 167.129 46.6712 168.115 46.0151 168.736C45.3593 169.352 44.3567 169.638 43.0074 169.595L40.8485 169.527ZM40.8904 168.205L43.0493 168.273C43.703 168.294 44.2213 168.229 44.6043 168.079C44.9932 167.929 45.2746 167.668 45.4485 167.295C45.6226 166.917 45.7201 166.398 45.741 165.738L45.8716 161.618C45.8924 160.964 45.8277 160.446 45.6778 160.063C45.5281 159.674 45.2638 159.393 44.8852 159.219C44.5127 159.039 43.9996 158.938 43.3459 158.918L41.178 158.849C40.5245 158.822 40.0063 158.884 39.6234 159.034C39.2406 159.178 38.9592 159.439 38.7791 159.817C38.6052 160.19 38.5078 160.706 38.4869 161.366L38.3557 165.504C38.3348 166.164 38.3992 166.688 38.549 167.077C38.6989 167.46 38.9602 167.738 39.3329 167.912C39.7116 168.086 40.2308 168.184 40.8904 168.205ZM53.7619 169.936C52.4126 169.893 51.4272 169.544 50.8057 168.888C50.1903 168.226 49.904 167.221 49.9468 165.871L50.0774 161.751C50.1206 160.39 50.4701 159.402 51.1259 158.786C51.7818 158.171 52.7812 157.887 54.1244 157.936L56.3013 158.005C57.4167 158.04 58.2549 158.301 58.8158 158.787C59.3768 159.267 59.6835 160.009 59.7357 161.013C59.7586 161.236 59.7112 161.405 59.5935 161.522C59.4759 161.632 59.3062 161.684 59.0843 161.677C58.6825 161.664 58.4587 161.435 58.4128 160.989C58.3782 160.376 58.1965 159.953 57.8677 159.72C57.5391 159.482 57.003 159.351 56.2594 159.327L54.0825 159.258C53.4288 159.237 52.9105 159.302 52.5275 159.452C52.1448 159.596 51.8664 159.857 51.6923 160.236C51.5184 160.608 51.4209 161.128 51.3998 161.793L51.2692 165.913C51.2482 166.573 51.3127 167.097 51.4624 167.486C51.6124 167.869 51.8737 168.148 52.2463 168.321C52.625 168.495 53.1442 168.593 53.8039 168.614L55.9628 168.682C56.5385 168.701 56.9903 168.649 57.3184 168.527C57.6524 168.406 57.8905 168.185 58.0327 167.866C58.1811 167.54 58.2646 167.083 58.2832 166.496L58.3129 165.56L56.7213 165.492C56.2835 165.478 56.0716 165.249 56.0857 164.805C56.0996 164.368 56.3254 164.156 56.7632 164.169L59.0205 164.259C59.4583 164.273 59.6702 164.499 59.6563 164.937L59.6056 166.538C59.566 167.785 59.2494 168.684 58.6556 169.236C58.0678 169.788 57.1562 170.044 55.9208 170.005L53.7619 169.936Z" fill="white"/>
<path d="M118.091 182.284C116.651 181.726 116.219 180.736 116.795 179.314L129.647 147.67C130.187 146.482 131.033 145.888 132.185 145.888H132.293C133.463 145.942 134.255 146.536 134.669 147.67L147.737 179.314C148.313 180.736 147.899 181.726 146.495 182.284C145.073 182.842 144.083 182.428 143.525 181.042L140.609 173.968H123.788L121.007 181.042C120.449 182.446 119.477 182.86 118.091 182.284ZM125.57 169.432H138.746L132.023 153.07L125.57 169.432ZM157.525 193.3C156.013 193.3 155.257 192.544 155.257 191.032V157.39C155.257 155.878 156.013 155.122 157.525 155.122C159.037 155.122 159.793 155.878 159.793 157.39V158.065C160.765 157.093 161.962 156.364 163.384 155.878C164.824 155.374 166.435 155.122 168.217 155.122H170.269C173.869 155.122 176.533 155.986 178.261 157.714C179.989 159.442 180.853 162.106 180.853 165.706V171.916C180.853 175.498 179.989 178.162 178.261 179.908C176.533 181.636 173.869 182.5 170.269 182.5H159.793V191.032C159.793 192.544 159.037 193.3 157.525 193.3ZM159.793 177.964H170.269C172.627 177.964 174.22 177.541 175.048 176.695C175.894 175.849 176.317 174.256 176.317 171.916V165.706C176.317 163.348 175.894 161.755 175.048 160.927C174.22 160.081 172.627 159.658 170.269 159.658H168.217C165.967 159.658 164.023 159.928 162.385 160.468C160.747 161.008 159.883 161.863 159.793 163.033V177.964ZM193.068 182.5C191.556 182.5 190.8 181.744 190.8 180.232V157.39C190.8 155.878 191.556 155.122 193.068 155.122C194.58 155.122 195.336 155.878 195.336 157.39V159.496C196.398 158.056 197.748 156.967 199.386 156.229C201.042 155.491 202.932 155.122 205.056 155.122C206.568 155.122 207.324 155.878 207.324 157.39C207.324 158.902 206.568 159.658 205.056 159.658C201.942 159.658 199.566 160.234 197.928 161.386C196.29 162.538 195.426 164.059 195.336 165.949V180.232C195.336 181.744 194.58 182.5 193.068 182.5ZM215.357 150.694C213.647 150.694 212.792 149.83 212.792 148.102V146.509C212.792 144.817 213.647 143.971 215.357 143.971H216.923C218.561 143.971 219.38 144.817 219.38 146.509V148.102C219.38 149.83 218.561 150.694 216.923 150.694H215.357ZM216.113 182.5C214.601 182.5 213.845 181.744 213.845 180.232V157.39C213.845 155.878 214.601 155.122 216.113 155.122C217.625 155.122 218.381 155.878 218.381 157.39V180.232C218.381 181.744 217.625 182.5 216.113 182.5ZM238.9 182.5C235.318 182.5 232.654 181.636 230.908 179.908C229.18 178.18 228.316 175.534 228.316 171.97V165.706C228.316 162.088 229.18 159.424 230.908 157.714C232.654 155.986 235.318 155.122 238.9 155.122H243.328C246.928 155.122 249.592 155.986 251.32 157.714C253.048 159.442 253.912 162.106 253.912 165.706V171.916C253.912 175.498 253.048 178.162 251.32 179.908C249.592 181.636 246.928 182.5 243.328 182.5H238.9ZM232.852 171.97C232.852 174.292 233.275 175.876 234.121 176.722C234.967 177.55 236.56 177.964 238.9 177.964H243.328C245.686 177.964 247.279 177.541 248.107 176.695C248.953 175.849 249.376 174.256 249.376 171.916V165.706C249.376 163.348 248.953 161.755 248.107 160.927C247.279 160.081 245.686 159.658 243.328 159.658H238.9C237.334 159.658 236.11 159.838 235.228 160.198C234.364 160.54 233.752 161.152 233.392 162.034C233.032 162.898 232.852 164.122 232.852 165.706V171.97ZM266.105 182.5C264.593 182.5 263.837 181.744 263.837 180.232V157.39C263.837 155.878 264.593 155.122 266.105 155.122C267.617 155.122 268.373 155.878 268.373 157.39V159.496C269.435 158.056 270.785 156.967 272.423 156.229C274.079 155.491 275.969 155.122 278.093 155.122C279.605 155.122 280.361 155.878 280.361 157.39C280.361 158.902 279.605 159.658 278.093 159.658C274.979 159.658 272.603 160.234 270.965 161.386C269.327 162.538 268.463 164.059 268.373 165.949V180.232C268.373 181.744 267.617 182.5 266.105 182.5ZM288.394 150.694C286.684 150.694 285.829 149.83 285.829 148.102V146.509C285.829 144.817 286.684 143.971 288.394 143.971H289.96C291.598 143.971 292.417 144.817 292.417 146.509V148.102C292.417 149.83 291.598 150.694 289.96 150.694H288.394ZM289.15 182.5C287.638 182.5 286.882 181.744 286.882 180.232V157.39C286.882 155.878 287.638 155.122 289.15 155.122C290.662 155.122 291.418 155.878 291.418 157.39V180.232C291.418 181.744 290.662 182.5 289.15 182.5ZM330.43 182.5C326.308 182.5 323.257 181.519 321.277 179.557C319.315 177.577 318.334 174.526 318.334 170.404V157.93C318.334 153.772 319.324 150.721 321.304 148.777C323.284 146.815 326.326 145.852 330.43 145.888H336.91C341.05 145.888 344.101 146.869 346.063 148.831C348.025 150.793 349.006 153.844 349.006 157.984V170.404C349.006 174.526 348.025 177.577 346.063 179.557C344.101 181.519 341.05 182.5 336.91 182.5H330.43ZM330.43 177.964H336.91C338.836 177.964 340.348 177.739 341.446 177.289C342.544 176.821 343.318 176.038 343.768 174.94C344.236 173.842 344.47 172.33 344.47 170.404V157.984C344.47 156.076 344.236 154.573 343.768 153.475C343.318 152.377 342.544 151.594 341.446 151.126C340.348 150.658 338.836 150.424 336.91 150.424H330.43C328.522 150.406 327.019 150.622 325.921 151.072C324.823 151.522 324.04 152.296 323.572 153.394C323.104 154.492 322.87 156.004 322.87 157.93V170.404C322.87 172.33 323.095 173.842 323.545 174.94C324.013 176.038 324.796 176.821 325.894 177.289C326.992 177.739 328.504 177.964 330.43 177.964ZM360.429 150.694C358.719 150.694 357.864 149.83 357.864 148.102V146.509C357.864 144.817 358.719 143.971 360.429 143.971H361.995C363.633 143.971 364.452 144.817 364.452 146.509V148.102C364.452 149.83 363.633 150.694 361.995 150.694H360.429ZM361.185 182.5C359.673 182.5 358.917 181.744 358.917 180.232V157.39C358.917 155.878 359.673 155.122 361.185 155.122C362.697 155.122 363.453 155.878 363.453 157.39V180.232C363.453 181.744 362.697 182.5 361.185 182.5ZM382.838 182.5C380.084 182.5 378.032 181.825 376.682 180.475C375.35 179.107 374.684 177.046 374.684 174.292V146.752C374.684 145.24 375.44 144.484 376.952 144.484C378.464 144.484 379.22 145.24 379.22 146.752V174.292C379.22 175.75 379.454 176.731 379.922 177.235C380.408 177.721 381.38 177.964 382.838 177.964C384.386 177.964 385.16 178.72 385.16 180.232C385.214 181.744 384.44 182.5 382.838 182.5ZM420.975 182.5C416.853 182.5 413.802 181.519 411.822 179.557C409.86 177.577 408.879 174.526 408.879 170.404V157.984C408.879 153.826 409.86 150.766 411.822 148.804C413.784 146.824 416.817 145.852 420.921 145.888H427.455C430.839 145.888 433.422 146.59 435.204 147.994C436.986 149.38 438.021 151.576 438.309 154.582C438.417 155.338 438.273 155.914 437.877 156.31C437.481 156.706 436.905 156.904 436.149 156.904C434.781 156.904 433.989 156.148 433.773 154.636C433.593 152.98 433.017 151.864 432.045 151.288C431.091 150.712 429.561 150.424 427.455 150.424H420.921C419.013 150.406 417.51 150.622 416.412 151.072C415.332 151.522 414.558 152.305 414.09 153.421C413.64 154.519 413.415 156.04 413.415 157.984V170.404C413.415 172.33 413.64 173.842 414.09 174.94C414.558 176.038 415.341 176.821 416.439 177.289C417.537 177.739 419.049 177.964 420.975 177.964H427.455C429.129 177.964 430.434 177.784 431.37 177.424C432.324 177.046 432.99 176.389 433.368 175.453C433.746 174.517 433.935 173.194 433.935 171.484V168.946L429.723 168.892C428.211 168.892 427.455 168.136 427.455 166.624C427.455 165.112 428.211 164.356 429.723 164.356L436.203 164.41C437.715 164.41 438.471 165.166 438.471 166.678V171.484C438.471 175.318 437.58 178.117 435.798 179.881C434.016 181.627 431.235 182.5 427.455 182.5H420.975ZM450.148 182.5C448.636 182.5 447.88 181.744 447.88 180.232V157.39C447.88 155.878 448.636 155.122 450.148 155.122C451.66 155.122 452.416 155.878 452.416 157.39V159.496C453.478 158.056 454.828 156.967 456.466 156.229C458.122 155.491 460.012 155.122 462.136 155.122C463.648 155.122 464.404 155.878 464.404 157.39C464.404 158.902 463.648 159.658 462.136 159.658C459.022 159.658 456.646 160.234 455.008 161.386C453.37 162.538 452.506 164.059 452.416 165.949V180.232C452.416 181.744 451.66 182.5 450.148 182.5ZM479.158 182.5C475.576 182.5 472.912 181.636 471.166 179.908C469.438 178.18 468.574 175.534 468.574 171.97V165.706C468.574 162.088 469.438 159.424 471.166 157.714C472.912 155.986 475.576 155.122 479.158 155.122H483.586C487.186 155.122 489.85 155.986 491.578 157.714C493.306 159.442 494.17 162.106 494.17 165.706V171.916C494.17 175.498 493.306 178.162 491.578 179.908C489.85 181.636 487.186 182.5 483.586 182.5H479.158ZM473.11 171.97C473.11 174.292 473.533 175.876 474.379 176.722C475.225 177.55 476.818 177.964 479.158 177.964H483.586C485.944 177.964 487.537 177.541 488.365 176.695C489.211 175.849 489.634 174.256 489.634 171.916V165.706C489.634 163.348 489.211 161.755 488.365 160.927C487.537 160.081 485.944 159.658 483.586 159.658H479.158C477.592 159.658 476.368 159.838 475.486 160.198C474.622 160.54 474.01 161.152 473.65 162.034C473.29 162.898 473.11 164.122 473.11 165.706V171.97ZM526.343 155.122C527.855 155.122 528.611 155.878 528.611 157.39V180.232C528.611 181.744 527.855 182.5 526.343 182.5C524.831 182.5 524.075 181.744 524.075 180.232V179.341C522.167 181.447 519.359 182.5 515.651 182.5H514.139C510.557 182.5 507.893 181.636 506.147 179.908C504.419 178.162 503.555 175.498 503.555 171.916V157.39C503.555 155.878 504.311 155.122 505.823 155.122C507.335 155.122 508.091 155.878 508.091 157.39V171.916C508.091 174.256 508.514 175.849 509.36 176.695C510.224 177.541 511.817 177.964 514.139 177.964H515.651C517.811 177.964 519.692 177.712 521.294 177.208C522.914 176.704 523.841 175.93 524.075 174.886V157.39C524.075 155.878 524.831 155.122 526.343 155.122ZM542.116 193.3C540.604 193.3 539.848 192.544 539.848 191.032V157.39C539.848 155.878 540.604 155.122 542.116 155.122C543.628 155.122 544.384 155.878 544.384 157.39V158.065C545.356 157.093 546.553 156.364 547.975 155.878C549.415 155.374 551.026 155.122 552.808 155.122H554.86C558.46 155.122 561.124 155.986 562.852 157.714C564.58 159.442 565.444 162.106 565.444 165.706V171.916C565.444 175.498 564.58 178.162 562.852 179.908C561.124 181.636 558.46 182.5 554.86 182.5H544.384V191.032C544.384 192.544 543.628 193.3 542.116 193.3ZM544.384 177.964H554.86C557.218 177.964 558.811 177.541 559.639 176.695C560.485 175.849 560.908 174.256 560.908 171.916V165.706C560.908 163.348 560.485 161.755 559.639 160.927C558.811 160.081 557.218 159.658 554.86 159.658H552.808C550.558 159.658 548.614 159.928 546.976 160.468C545.338 161.008 544.474 161.863 544.384 163.033V177.964Z" fill="white"/>
</svg>
