<?xml version="1.0" encoding="UTF-8" standalone="no"?>
<svg width="399" height="325" viewBox="0 0 399 325" fill="none" xmlns="http://www.w3.org/2000/svg">
<mask id="mask0_90_53" style="mask-type:luminance" maskUnits="userSpaceOnUse" x="5" y="110" width="87" height="105">
<path d="M91.2032 110.95H5.79681V214.05H91.2032V110.95Z" fill="white"/>
</mask>
<g mask="url(#mask0_90_53)">
<path d="M80.5468 199.577L79.8577 197.682L79.4014 196.406L79.3768 196.348V196.325L50.0227 115.056C50.011 115.033 50.011 115.01 49.9993 114.998C49.9876 114.986 49.9865 114.975 49.9865 114.963H49.9747C49.9642 114.939 49.9642 114.939 49.9642 114.928C49.965 114.921 49.9643 114.915 49.9623 114.909C49.9604 114.903 49.957 114.897 49.9526 114.893V114.881C49.9444 114.867 49.9404 114.851 49.9408 114.834L49.9291 114.823L48.5485 110.997L78.6994 141.148C86.3752 148.828 90.8382 159.144 91.1814 169.997C91.5245 180.85 87.7221 191.427 80.5468 199.577Z" fill="#FF0000"/>
<path d="M48.4539 110.997L47.0745 114.823C47.0636 114.845 47.0554 114.868 47.0499 114.893C47.0492 114.901 47.0455 114.91 47.0394 114.916C47.0398 114.932 47.0359 114.949 47.0277 114.963H47.016L46.9914 115.056H46.9797L17.6841 196.173C17.6679 196.221 17.6483 196.267 17.6256 196.313C17.6158 196.336 17.6076 196.359 17.601 196.383V196.395L17.5905 196.406L16.4556 199.566C12.3021 194.85 9.24046 189.276 7.48904 183.241C5.73763 177.206 5.33963 170.859 6.32343 164.653V164.629C6.33396 164.618 6.33397 164.618 6.33397 164.606C7.73877 155.716 11.9303 147.502 18.3042 141.148L48.42 111.032L48.4539 110.997Z" fill="#B40909"/>
<path d="M80.5469 199.577C79.9502 200.244 79.3429 200.899 78.6994 201.543C74.7373 205.513 70.0301 208.662 64.8479 210.808C59.6658 212.954 54.1109 214.056 48.5018 214.05V110.95L48.5486 110.997L49.9292 114.823L49.9409 114.834C49.9404 114.851 49.9444 114.867 49.9526 114.881V114.893C49.957 114.897 49.9603 114.903 49.9624 114.909C49.9644 114.915 49.9651 114.921 49.9643 114.928C49.9643 114.94 49.9643 114.94 49.9748 114.963L49.9994 114.998C50.0111 115.01 50.0111 115.033 50.0228 115.056L79.3769 196.325V196.348L79.4014 196.407L79.8577 197.682L80.5469 199.577Z" fill="#FF0000"/>
<path d="M48.5022 110.95V214.05C42.8925 214.061 37.336 212.961 32.1533 210.815C26.9705 208.668 22.2639 205.517 18.3046 201.543C17.6599 200.899 17.0526 200.244 16.4559 199.577V199.565L17.5909 196.407L17.6014 196.395V196.383C17.6079 196.359 17.616 196.336 17.626 196.313C17.6486 196.268 17.6681 196.221 17.6845 196.173L46.9801 115.056H46.9918C47.0075 115.027 47.0196 114.995 47.028 114.963C47.0361 114.949 47.0402 114.932 47.0397 114.916C47.0457 114.91 47.0495 114.901 47.0503 114.893C47.0557 114.868 47.0638 114.845 47.0747 114.823L48.4543 110.997L48.5022 110.95Z" fill="#870202"/>
<g style="mix-blend-mode:overlay">
<path d="M47.0499 114.888C47.0364 114.945 47.0169 114.999 46.9914 115.052C46.851 115.531 46.5012 116.69 45.9735 118.386C45.2493 120.644 44.2548 123.885 42.9666 127.746C41.7042 131.619 40.182 136.112 38.5206 140.909C37.6782 143.307 36.8112 145.788 35.9337 148.303C35.034 150.819 34.1202 153.369 33.2088 155.932C31.3473 161.021 29.4987 166.111 27.6981 170.861C25.8975 175.611 24.1998 180.045 22.701 183.836C21.2023 187.627 19.9164 190.751 19.0284 192.95C18.3498 194.6 17.8807 195.711 17.6829 196.168L46.9785 115.052C46.9968 114.995 47.0206 114.94 47.0499 114.888Z" fill="white"/>
</g>
<g style="mix-blend-mode:overlay">
<path d="M79.377 196.337C79.2495 196.056 78.7464 194.862 77.9625 192.955C77.085 190.756 75.7746 187.632 74.2887 183.841C72.8028 180.05 71.0946 175.628 69.3045 170.866C67.5144 166.104 65.6413 161.026 63.7821 155.936C62.8695 153.374 61.9569 150.824 61.0677 148.308C60.1785 145.793 59.3127 143.312 58.482 140.914C56.8089 136.117 55.2997 131.624 54.0244 127.751C52.7491 123.879 51.7546 120.649 51.0163 118.391C50.4559 116.543 50.0932 115.349 49.975 114.963C49.9645 114.928 49.9528 114.916 49.9528 114.893C49.9821 114.945 50.0056 115 50.023 115.057L79.377 196.337Z" fill="white"/>
</g>
<g style="mix-blend-mode:overlay">
<path d="M49.4378 162.184C49.4015 168.291 49.3898 174.387 49.3091 180.12C49.2283 185.853 49.0751 191.188 48.9932 195.763C48.9113 200.338 48.7124 204.164 48.6422 206.831C48.5825 208.165 48.5369 209.218 48.5018 209.932V114.42C48.5369 113.718 48.5486 113.332 48.5486 113.332C48.5486 113.332 48.6059 114.853 48.7241 117.521C48.7943 120.2 48.9815 124.014 49.0634 128.589C49.1453 133.163 49.2857 138.51 49.3442 144.243C49.3676 147.098 49.3898 150.058 49.4144 153.065C49.4144 156.072 49.4261 159.13 49.4378 162.184Z" fill="white"/>
</g>
<g style="mix-blend-mode:screen" opacity="0.4">
<path d="M48.4199 111.027C48.1157 111.436 45.5288 114.783 41.4818 119.381C40.4159 120.609 39.2459 121.931 37.9823 123.312C36.7187 124.693 35.4083 126.155 34.0043 127.618C32.6003 129.08 31.1729 130.648 29.6753 132.169C28.1777 133.69 26.6556 135.246 25.1357 136.79C23.5785 138.311 22.0341 139.832 20.5131 141.33C19.7537 142.067 19.0049 142.804 18.2678 143.53C17.5892 144.243 16.9212 144.957 16.2906 145.717C15.0742 147.167 13.9339 148.678 12.8742 150.245C11.8797 151.755 11.0256 153.252 10.2768 154.656C9.08782 156.957 8.07104 159.342 7.23479 161.793C6.94228 162.694 6.68371 163.408 6.54331 163.899C6.43957 164.262 6.36936 164.496 6.3327 164.601C7.7375 155.711 11.929 147.497 18.3029 141.143L48.4199 111.027Z" fill="white"/>
</g>
<g style="mix-blend-mode:multiply" opacity="0.25">
<path d="M82.4787 199.928L82.5021 200.01L81.9054 200.63L81.8352 200.7L82.1628 199.016L82.4787 199.928Z" fill="black"/>
</g>
<g style="mix-blend-mode:multiply" opacity="0.25">
<path d="M80.5467 199.577C79.95 200.244 79.3428 200.899 78.6993 201.543C72.7579 207.475 65.2023 211.528 56.9737 213.197C48.7452 214.865 40.2076 214.076 32.4247 210.926C36.5778 212.268 40.8986 213.02 45.2607 213.161C46.3488 213.196 47.4241 213.173 48.5016 213.138C49.5546 213.079 50.6895 213.021 51.7191 212.88C52.7721 212.787 53.8368 212.588 54.8887 212.4C55.9311 212.19 56.9724 211.956 58.0125 211.687C59.0316 211.394 60.06 211.125 61.0674 210.751C62.0736 210.411 63.0564 209.99 64.0263 209.592C64.9986 209.136 65.958 208.715 66.894 208.212C67.8417 207.744 68.7543 207.182 69.654 206.644C70.5561 206.071 71.4336 205.486 72.2748 204.854C73.1161 204.222 73.9491 203.567 74.7564 202.877L75.9486 201.835L77.0847 200.736L77.3772 200.466L77.4813 200.361L77.6217 200.209L78.1845 199.612L79.1907 198.524L79.2609 198.442C79.4586 198.185 79.6575 197.939 79.8576 197.682C80.5245 196.851 81.1914 196.032 81.8232 195.19C82.5486 194.02 83.3442 192.885 84.0345 191.691C84.6534 190.463 85.3788 189.281 85.9182 188.018L86.7009 186.099L87.0999 185.139C87.2169 184.824 87.3105 184.484 87.4146 184.157C87.8668 182.851 88.2379 181.518 88.5261 180.167L88.959 178.143C89.0967 177.466 89.1982 176.783 89.2632 176.095L89.5218 174.036C89.5686 173.346 89.5686 172.644 89.6025 171.954C89.6142 171.263 89.6739 170.573 89.6505 169.871L89.5218 167.8C89.4657 166.407 89.3171 165.02 89.0772 163.647L88.9368 162.617C88.8666 162.278 88.7847 161.938 88.7028 161.599L88.2219 159.563C88.0644 158.881 87.8655 158.209 87.6264 157.551L86.97 155.55C86.502 154.24 85.8819 152.976 85.3449 151.678L83.3313 147.957C82.5357 146.787 81.7647 145.594 80.9457 144.435C80.0436 143.335 79.1661 142.212 78.243 141.112L75.3999 137.848L78.6993 141.148C86.3751 148.828 90.8381 159.144 91.1812 169.997C91.5243 180.85 87.722 191.427 80.5467 199.577Z" fill="black"/>
</g>
</g>
<path d="M14.2779 183.503L13.4688 182.068L21.0372 180.683L22.0102 182.41L16.9058 188.165L16.0967 186.73L20.0899 182.387L20.062 182.338L14.2779 183.503ZM16.7176 182.01L18.6288 185.4L17.5832 185.989L15.672 182.599L16.7176 182.01Z" fill="white"/>
<path d="M17.7751 188.743L21.9704 185.257L25.0183 188.925L20.823 192.411L19.8993 191.3L23.1797 188.574L21.9678 187.116L18.6874 189.841L17.7751 188.743Z" fill="white"/>
<path d="M20.9128 195.07L25.773 189.358L26.9089 190.324L26.3152 191.022L26.3666 191.066C26.5122 190.997 26.6819 190.946 26.8756 190.912C27.0727 190.877 27.2818 190.887 27.5028 190.942C27.7272 190.996 27.9557 191.122 28.1883 191.32C28.4912 191.578 28.7031 191.895 28.8242 192.271C28.9467 192.646 28.9496 193.057 28.8329 193.505C28.7177 193.951 28.4575 194.412 28.0525 194.888C27.6582 195.351 27.2505 195.679 26.8293 195.871C26.4114 196.062 26.0047 196.131 25.609 196.077C25.2167 196.023 24.8628 195.862 24.5473 195.593C24.3237 195.403 24.1649 195.204 24.071 194.997C23.9788 194.791 23.9307 194.59 23.9266 194.394C23.9241 194.196 23.9458 194.017 23.9917 193.857L23.9566 193.827L22.0649 196.05L20.9128 195.07ZM25.1335 192.395C24.9233 192.642 24.7742 192.886 24.6862 193.129C24.5983 193.371 24.5755 193.598 24.6178 193.812C24.6618 194.023 24.7766 194.208 24.9623 194.366C25.1498 194.525 25.3522 194.609 25.5695 194.617C25.7883 194.623 26.0093 194.562 26.2325 194.435C26.459 194.307 26.6751 194.123 26.8806 193.881C27.0847 193.642 27.2308 193.402 27.3191 193.163C27.4073 192.924 27.4302 192.698 27.3879 192.485C27.3455 192.272 27.2296 192.085 27.0403 191.924C26.8528 191.764 26.6519 191.679 26.4377 191.667C26.2253 191.658 26.0074 191.715 25.7839 191.838C25.5605 191.962 25.3437 192.148 25.1335 192.395Z" fill="white"/>
<path d="M30.1471 196.761L33.58 194.753L34.8706 195.5L32.1367 200.22L30.8891 199.498L32.6281 196.495L29.196 198.517L27.8961 197.764L30.63 193.044L31.8807 193.769L30.1471 196.761Z" fill="white"/>
<path d="M36.5069 201.868C35.9878 201.681 35.5785 201.41 35.279 201.053C34.9826 200.695 34.8031 200.281 34.7407 199.811C34.679 199.338 34.7427 198.839 34.9316 198.313C35.1222 197.783 35.3912 197.356 35.7387 197.034C36.087 196.708 36.489 196.503 36.9448 196.418C37.4036 196.331 37.8926 196.381 38.4117 196.568C38.9308 196.754 39.3386 197.027 39.635 197.385C39.9345 197.741 40.1151 198.156 40.1767 198.628C40.2392 199.099 40.1751 199.599 39.9846 200.129C39.7956 200.655 39.527 201.08 39.1787 201.406C38.8312 201.728 38.4281 201.933 37.9693 202.02C37.5135 202.105 37.026 202.055 36.5069 201.868ZM36.9099 200.768C37.1461 200.852 37.3673 200.856 37.5735 200.78C37.7805 200.701 37.9662 200.558 38.1305 200.353C38.297 200.149 38.4339 199.898 38.5411 199.599C38.6484 199.301 38.7029 199.02 38.7045 198.756C38.7084 198.493 38.6557 198.265 38.5463 198.073C38.437 197.88 38.2642 197.741 38.0281 197.656C37.7897 197.571 37.5647 197.567 37.3533 197.644C37.144 197.722 36.9561 197.863 36.7896 198.068C36.6254 198.273 36.4896 198.525 36.3823 198.823C36.275 199.122 36.2194 199.402 36.2156 199.665C36.2139 199.929 36.2689 200.157 36.3805 200.351C36.4951 200.543 36.6716 200.682 36.9099 200.768Z" fill="white"/>
<path d="M40.6807 204.938L41.9126 197.54L43.3838 197.785L43.2333 198.689L43.2998 198.7C43.3893 198.566 43.5084 198.434 43.6571 198.306C43.8085 198.175 43.9929 198.076 44.2105 198.009C44.4307 197.94 44.6915 197.931 44.9928 197.981C45.3851 198.046 45.7299 198.209 46.0273 198.47C46.3251 198.728 46.539 199.079 46.6691 199.524C46.7995 199.965 46.8134 200.494 46.7108 201.111C46.6108 201.711 46.4295 202.202 46.1669 202.583C45.907 202.962 45.5935 203.23 45.2265 203.387C44.8622 203.543 44.4758 203.586 44.0671 203.518C43.7775 203.47 43.5391 203.381 43.3519 203.252C43.167 203.122 43.0224 202.975 42.9181 202.809C42.8141 202.64 42.7407 202.475 42.6979 202.315L42.6524 202.307L42.1729 205.187L40.6807 204.938ZM42.9253 200.473C42.872 200.793 42.8699 201.08 42.919 201.333C42.9681 201.586 43.0656 201.793 43.2116 201.954C43.358 202.113 43.5514 202.212 43.7919 202.252C44.0348 202.293 44.2514 202.26 44.4417 202.155C44.6324 202.048 44.7908 201.882 44.9168 201.658C45.0456 201.432 45.1361 201.163 45.1882 200.85C45.2399 200.54 45.2422 200.259 45.1951 200.009C45.1479 199.759 45.0514 199.553 44.9054 199.392C44.7594 199.231 44.5638 199.13 44.3186 199.089C44.0758 199.049 43.8596 199.079 43.67 199.179C43.4829 199.28 43.3252 199.441 43.1972 199.662C43.0692 199.883 42.9786 200.153 42.9253 200.473Z" fill="white"/>
<path d="M49.4706 201.641L51.3823 198.153L52.8736 198.131L52.9554 203.585L51.5138 203.606L51.4618 200.137L49.5573 203.636L48.0554 203.658L47.9736 198.204L49.4187 198.183L49.4706 201.641Z" fill="white"/>
<path d="M57.551 202.751C57.0098 202.858 56.5191 202.835 56.0789 202.684C55.6405 202.529 55.2736 202.266 54.9783 201.895C54.6825 201.521 54.4805 201.06 54.3722 200.512C54.2631 199.959 54.2745 199.455 54.4065 199C54.5381 198.542 54.7774 198.159 55.1245 197.851C55.4735 197.541 55.9185 197.333 56.4597 197.226C57.0008 197.119 57.4906 197.143 57.929 197.298C58.3692 197.45 58.7372 197.712 59.033 198.086C59.3284 198.457 59.5306 198.919 59.6398 199.472C59.7481 200.02 59.7364 200.523 59.6048 200.981C59.4728 201.436 59.2323 201.819 58.8834 202.13C58.5363 202.437 58.0921 202.644 57.551 202.751ZM57.3309 201.6C57.5771 201.551 57.7689 201.441 57.9062 201.269C58.0432 201.095 58.1293 200.878 58.1648 200.617C58.2025 200.356 58.1907 200.07 58.1292 199.759C58.0678 199.448 57.97 199.179 57.8359 198.952C57.7041 198.725 57.5418 198.556 57.3489 198.447C57.156 198.338 56.9365 198.308 56.6903 198.357C56.4418 198.406 56.2467 198.518 56.1052 198.693C55.9659 198.868 55.8774 199.086 55.8396 199.346C55.8042 199.607 55.8172 199.893 55.8787 200.204C55.9401 200.515 56.0368 200.784 56.1685 201.012C56.3026 201.239 56.4673 201.406 56.6625 201.515C56.8596 201.621 57.0824 201.649 57.3309 201.6Z" fill="white"/>
<path d="M62.574 198.949L63.1344 195.011L64.5222 194.465L66.5201 199.54L65.1785 200.068L63.9077 196.84L63.3578 200.785L61.9601 201.335L59.9622 196.26L61.3071 195.73L62.574 198.949Z" fill="white"/>
<path d="M68.1051 198.518L67.4665 197.501L67.6205 197.406C67.7291 197.338 67.8065 197.254 67.8525 197.153C67.8993 197.049 67.9114 196.92 67.8889 196.767C67.8664 196.614 67.8084 196.429 67.7151 196.211C67.6205 195.991 67.4872 195.731 67.3151 195.431L66.1181 193.332L69.6433 191.146L72.5175 195.782L71.2922 196.542L69.0448 192.917L67.901 193.626L68.7061 195.086C68.9288 195.486 69.0886 195.849 69.1855 196.176C69.2845 196.502 69.3231 196.796 69.3013 197.057C69.2783 197.317 69.1994 197.547 69.0647 197.747C68.93 197.948 68.7389 198.125 68.4914 198.278L68.1051 198.518Z" fill="white"/>
<path d="M71.0693 191.29L70.2782 190.401L73.97 187.114L74.7611 188.002L73.4483 189.171L76.2845 192.357L75.2077 193.315L72.3715 190.13L71.0693 191.29Z" fill="white"/>
<path d="M80.3467 187.798C80.0038 188.23 79.6155 188.531 79.1817 188.7C78.7476 188.867 78.2978 188.904 77.8323 188.813C77.3649 188.72 76.9124 188.5 76.4748 188.153C76.0334 187.802 75.7154 187.411 75.5207 186.978C75.3241 186.544 75.2584 186.098 75.3235 185.639C75.3882 185.176 75.592 184.729 75.9349 184.297C76.2778 183.865 76.6663 183.566 77.1005 183.4C77.5342 183.23 77.9848 183.192 78.4521 183.284C78.9176 183.376 79.371 183.597 79.8124 183.947C80.2501 184.294 80.5672 184.685 80.7637 185.119C80.9584 185.551 81.0234 185.999 80.9587 186.461C80.8936 186.92 80.6896 187.366 80.3467 187.798ZM79.4332 187.064C79.5891 186.867 79.6637 186.659 79.657 186.439C79.6483 186.218 79.5731 185.996 79.4314 185.775C79.2911 185.552 79.0967 185.342 78.8482 185.145C78.5997 184.947 78.3509 184.806 78.1017 184.72C77.854 184.632 77.6214 184.609 77.4038 184.651C77.1862 184.693 76.9994 184.812 76.8434 185.009C76.6859 185.207 76.61 185.419 76.6157 185.644C76.6229 185.868 76.6966 186.091 76.8369 186.314C76.9786 186.535 77.1738 186.744 77.4222 186.942C77.6707 187.139 77.9188 187.281 78.1665 187.369C78.4157 187.455 78.6498 187.476 78.8689 187.432C79.0876 187.385 79.2757 187.262 79.4332 187.064Z" fill="white"/>
<path d="M82.7598 183.897L77.9685 181.29L80.2478 177.101L85.0391 179.707L84.3483 180.977L80.602 178.939L79.6957 180.604L83.442 182.643L82.7598 183.897Z" fill="white"/>
<path d="M123.091 182.284C121.651 181.726 121.219 180.736 121.795 179.314L134.647 147.67C135.187 146.482 136.033 145.888 137.185 145.888H137.293C138.463 145.942 139.255 146.536 139.669 147.67L152.737 179.314C153.313 180.736 152.899 181.726 151.495 182.284C150.073 182.842 149.083 182.428 148.525 181.042L145.609 173.968H128.788L126.007 181.042C125.449 182.446 124.477 182.86 123.091 182.284ZM130.57 169.432H143.746L137.023 153.07L130.57 169.432ZM162.525 193.3C161.013 193.3 160.257 192.544 160.257 191.032V157.39C160.257 155.878 161.013 155.122 162.525 155.122C164.037 155.122 164.793 155.878 164.793 157.39V158.065C165.765 157.093 166.962 156.364 168.384 155.878C169.824 155.374 171.435 155.122 173.217 155.122H175.269C178.869 155.122 181.533 155.986 183.261 157.714C184.989 159.442 185.853 162.106 185.853 165.706V171.916C185.853 175.498 184.989 178.162 183.261 179.908C181.533 181.636 178.869 182.5 175.269 182.5H164.793V191.032C164.793 192.544 164.037 193.3 162.525 193.3ZM164.793 177.964H175.269C177.627 177.964 179.22 177.541 180.048 176.695C180.894 175.849 181.317 174.256 181.317 171.916V165.706C181.317 163.348 180.894 161.755 180.048 160.927C179.22 160.081 177.627 159.658 175.269 159.658H173.217C170.967 159.658 169.023 159.928 167.385 160.468C165.747 161.008 164.883 161.863 164.793 163.033V177.964ZM198.068 182.5C196.556 182.5 195.8 181.744 195.8 180.232V157.39C195.8 155.878 196.556 155.122 198.068 155.122C199.58 155.122 200.336 155.878 200.336 157.39V159.496C201.398 158.056 202.748 156.967 204.386 156.229C206.042 155.491 207.932 155.122 210.056 155.122C211.568 155.122 212.324 155.878 212.324 157.39C212.324 158.902 211.568 159.658 210.056 159.658C206.942 159.658 204.566 160.234 202.928 161.386C201.29 162.538 200.426 164.059 200.336 165.949V180.232C200.336 181.744 199.58 182.5 198.068 182.5ZM220.357 150.694C218.647 150.694 217.792 149.83 217.792 148.102V146.509C217.792 144.817 218.647 143.971 220.357 143.971H221.923C223.561 143.971 224.38 144.817 224.38 146.509V148.102C224.38 149.83 223.561 150.694 221.923 150.694H220.357ZM221.113 182.5C219.601 182.5 218.845 181.744 218.845 180.232V157.39C218.845 155.878 219.601 155.122 221.113 155.122C222.625 155.122 223.381 155.878 223.381 157.39V180.232C223.381 181.744 222.625 182.5 221.113 182.5ZM243.9 182.5C240.318 182.5 237.654 181.636 235.908 179.908C234.18 178.18 233.316 175.534 233.316 171.97V165.706C233.316 162.088 234.18 159.424 235.908 157.714C237.654 155.986 240.318 155.122 243.9 155.122H248.328C251.928 155.122 254.592 155.986 256.32 157.714C258.048 159.442 258.912 162.106 258.912 165.706V171.916C258.912 175.498 258.048 178.162 256.32 179.908C254.592 181.636 251.928 182.5 248.328 182.5H243.9ZM237.852 171.97C237.852 174.292 238.275 175.876 239.121 176.722C239.967 177.55 241.56 177.964 243.9 177.964H248.328C250.686 177.964 252.279 177.541 253.107 176.695C253.953 175.849 254.376 174.256 254.376 171.916V165.706C254.376 163.348 253.953 161.755 253.107 160.927C252.279 160.081 250.686 159.658 248.328 159.658H243.9C242.334 159.658 241.11 159.838 240.228 160.198C239.364 160.54 238.752 161.152 238.392 162.034C238.032 162.898 237.852 164.122 237.852 165.706V171.97ZM271.105 182.5C269.593 182.5 268.837 181.744 268.837 180.232V157.39C268.837 155.878 269.593 155.122 271.105 155.122C272.617 155.122 273.373 155.878 273.373 157.39V159.496C274.435 158.056 275.785 156.967 277.423 156.229C279.079 155.491 280.969 155.122 283.093 155.122C284.605 155.122 285.361 155.878 285.361 157.39C285.361 158.902 284.605 159.658 283.093 159.658C279.979 159.658 277.603 160.234 275.965 161.386C274.327 162.538 273.463 164.059 273.373 165.949V180.232C273.373 181.744 272.617 182.5 271.105 182.5ZM293.394 150.694C291.684 150.694 290.829 149.83 290.829 148.102V146.509C290.829 144.817 291.684 143.971 293.394 143.971H294.96C296.598 143.971 297.417 144.817 297.417 146.509V148.102C297.417 149.83 296.598 150.694 294.96 150.694H293.394ZM294.15 182.5C292.638 182.5 291.882 181.744 291.882 180.232V157.39C291.882 155.878 292.638 155.122 294.15 155.122C295.662 155.122 296.418 155.878 296.418 157.39V180.232C296.418 181.744 295.662 182.5 294.15 182.5ZM335.43 182.5C331.308 182.5 328.257 181.519 326.277 179.557C324.315 177.577 323.334 174.526 323.334 170.404V157.93C323.334 153.772 324.324 150.721 326.304 148.777C328.284 146.815 331.326 145.852 335.43 145.888H341.91C346.05 145.888 349.101 146.869 351.063 148.831C353.025 150.793 354.006 153.844 354.006 157.984V170.404C354.006 174.526 353.025 177.577 351.063 179.557C349.101 181.519 346.05 182.5 341.91 182.5H335.43ZM335.43 177.964H341.91C343.836 177.964 345.348 177.739 346.446 177.289C347.544 176.821 348.318 176.038 348.768 174.94C349.236 173.842 349.47 172.33 349.47 170.404V157.984C349.47 156.076 349.236 154.573 348.768 153.475C348.318 152.377 347.544 151.594 346.446 151.126C345.348 150.658 343.836 150.424 341.91 150.424H335.43C333.522 150.406 332.019 150.622 330.921 151.072C329.823 151.522 329.04 152.296 328.572 153.394C328.104 154.492 327.87 156.004 327.87 157.93V170.404C327.87 172.33 328.095 173.842 328.545 174.94C329.013 176.038 329.796 176.821 330.894 177.289C331.992 177.739 333.504 177.964 335.43 177.964ZM365.429 150.694C363.719 150.694 362.864 149.83 362.864 148.102V146.509C362.864 144.817 363.719 143.971 365.429 143.971H366.995C368.633 143.971 369.452 144.817 369.452 146.509V148.102C369.452 149.83 368.633 150.694 366.995 150.694H365.429ZM366.185 182.5C364.673 182.5 363.917 181.744 363.917 180.232V157.39C363.917 155.878 364.673 155.122 366.185 155.122C367.697 155.122 368.453 155.878 368.453 157.39V180.232C368.453 181.744 367.697 182.5 366.185 182.5ZM387.838 182.5C385.084 182.5 383.032 181.825 381.682 180.475C380.35 179.107 379.684 177.046 379.684 174.292V146.752C379.684 145.24 380.44 144.484 381.952 144.484C383.464 144.484 384.22 145.24 384.22 146.752V174.292C384.22 175.75 384.454 176.731 384.922 177.235C385.408 177.721 386.38 177.964 387.838 177.964C389.386 177.964 390.16 178.72 390.16 180.232C390.214 181.744 389.44 182.5 387.838 182.5Z" fill="white"/>
</svg>
