<?xml version="1.0" encoding="UTF-8" standalone="no"?>
<svg width="87" height="105" viewBox="0 0 87 105" fill="none" xmlns="http://www.w3.org/2000/svg">
<mask id="mask0_86_2" style="mask-type:luminance" maskUnits="userSpaceOnUse" x="0" y="0" width="87" height="105">
<path d="M86.2032 0.94989H0.796814V104.05H86.2032V0.94989Z" fill="white"/>
</mask>
<g mask="url(#mask0_86_2)">
<path d="M75.5468 89.5773L74.8577 87.6818L74.4014 86.4065L74.3768 86.3481V86.3246L45.0227 5.05654C45.011 5.03314 45.011 5.00975 44.9993 4.99805C44.9876 4.98635 44.9865 4.97465 44.9865 4.96295H44.9747C44.9642 4.93955 44.9642 4.93955 44.9642 4.92785C44.965 4.92151 44.9643 4.91504 44.9623 4.90897C44.9604 4.90289 44.957 4.89738 44.9526 4.89276V4.88105C44.9444 4.86682 44.9404 4.85062 44.9408 4.83424L44.9291 4.82256L43.5485 0.996643L73.6994 31.1476C81.3752 38.8283 85.8382 49.1437 86.1814 59.9969C86.5245 70.8502 82.7221 81.427 75.5468 89.5773Z" fill="#FF0000"/>
<path d="M43.4539 0.996643L42.0745 4.82256C42.0636 4.84493 42.0554 4.86848 42.0499 4.89276C42.0492 4.90153 42.0455 4.90977 42.0394 4.91615C42.0398 4.93253 42.0359 4.94873 42.0277 4.96295H42.016L41.9914 5.05654H41.9797L12.6841 86.1726C12.6679 86.2206 12.6483 86.2675 12.6256 86.313C12.6158 86.3357 12.6076 86.3592 12.601 86.3832V86.3949L12.5905 86.4065L11.4556 89.5656C7.30212 84.85 4.24046 79.276 2.48904 73.2411C0.737626 67.2062 0.339628 60.8592 1.32343 54.6528V54.6293C1.33396 54.6176 1.33397 54.6176 1.33397 54.6059C2.73877 45.716 6.93027 37.5018 13.3042 31.1476L43.42 1.03174L43.4539 0.996643Z" fill="#B40909"/>
<path d="M75.5469 89.5773C74.9502 90.2442 74.3429 90.8994 73.6994 91.5429C69.7373 95.5131 65.0301 98.6617 59.8479 100.808C54.6658 102.954 49.1109 104.056 43.5018 104.05V0.94989L43.5486 0.996664L44.9292 4.82258L44.9409 4.83426C44.9404 4.85064 44.9444 4.86685 44.9526 4.88107V4.89278C44.957 4.89741 44.9603 4.90292 44.9624 4.90899C44.9644 4.91506 44.9651 4.92153 44.9643 4.92787C44.9643 4.93957 44.9643 4.93957 44.9748 4.96297L44.9994 4.99807C45.0111 5.00977 45.0111 5.03316 45.0228 5.05656L74.3769 86.3247V86.3481L74.4014 86.4066L74.8577 87.6819L75.5469 89.5773Z" fill="#FF0000"/>
<path d="M43.5022 0.94989V104.05C37.8925 104.061 32.336 102.961 27.1533 100.815C21.9705 98.668 17.2639 95.5169 13.3046 91.5429C12.6599 90.8994 12.0526 90.2442 11.4559 89.5773V89.5656L12.5909 86.4066L12.6014 86.3949V86.3832C12.6079 86.3592 12.616 86.3358 12.626 86.313C12.6486 86.2676 12.6681 86.2206 12.6845 86.1726L41.9801 5.05656H41.9918C42.0075 5.02689 42.0196 4.99549 42.028 4.96297C42.0361 4.94876 42.0402 4.93254 42.0397 4.91616C42.0457 4.9098 42.0495 4.90155 42.0503 4.89278C42.0557 4.86851 42.0638 4.84495 42.0747 4.82258L43.4543 0.996664L43.5022 0.94989Z" fill="#870202"/>
<g style="mix-blend-mode:overlay">
<path d="M42.0499 4.88806C42.0364 4.94465 42.0169 4.99956 41.9914 5.05184C41.851 5.53154 41.5012 6.68985 40.9735 8.38635C40.2493 10.6444 39.2548 13.8854 37.9666 17.7464C36.7042 21.6191 35.182 26.1119 33.5206 30.9089C32.6782 33.3074 31.8112 35.7878 30.9337 38.3033C30.034 40.8187 29.1202 43.3693 28.2088 45.9316C26.3473 51.0211 24.4987 56.1106 22.6981 60.8608C20.8975 65.611 19.1998 70.0453 17.701 73.8361C16.2023 77.6269 14.9164 80.7508 14.0284 82.9504C13.3498 84.6001 12.8807 85.7116 12.6829 86.1679L41.9785 5.05184C41.9968 4.99499 42.0206 4.94013 42.0499 4.88806Z" fill="white"/>
</g>
<g style="mix-blend-mode:overlay">
<path d="M74.377 86.3365C74.2495 86.0557 73.7464 84.8623 72.9625 82.9552C72.085 80.7556 70.7746 77.6317 69.2887 73.8409C67.8028 70.0501 66.0946 65.6275 64.3045 60.8656C62.5144 56.1037 60.6413 51.026 58.7821 45.9365C57.8695 43.3742 56.9569 40.8236 56.0677 38.3081C55.1785 35.7926 54.3127 33.3122 53.482 30.9137C51.8089 26.1167 50.2997 21.6239 49.0244 17.7512C47.7491 13.8785 46.7546 10.6493 46.0163 8.39123C45.4559 6.54263 45.0932 5.34923 44.975 4.96313C44.9645 4.92803 44.9528 4.91634 44.9528 4.89294C44.9821 4.94482 45.0056 4.99973 45.023 5.05672L74.377 86.3365Z" fill="white"/>
</g>
<g style="mix-blend-mode:overlay">
<path d="M44.4378 52.1841C44.4015 58.2915 44.3898 64.3872 44.3091 70.1202C44.2283 75.8532 44.0751 81.1884 43.9932 85.763C43.9113 90.3377 43.7124 94.1636 43.6422 96.8312C43.5825 98.165 43.5369 99.218 43.5018 99.9317V4.42006C43.5369 3.71806 43.5486 3.33197 43.5486 3.33197C43.5486 3.33197 43.6059 4.85299 43.7241 7.52059C43.7943 10.1999 43.9815 14.0141 44.0634 18.5888C44.1453 23.1635 44.2857 28.5103 44.3442 34.2433C44.3676 37.0981 44.3898 40.0582 44.4144 43.0651C44.4144 46.072 44.4261 49.1304 44.4378 52.1841Z" fill="white"/>
</g>
<g style="mix-blend-mode:screen" opacity="0.4">
<path d="M43.4199 1.02698C43.1157 1.43648 40.5288 4.78269 36.4818 9.38078C35.4159 10.6093 34.2459 11.9314 32.9823 13.3119C31.7187 14.6925 30.4083 16.155 29.0043 17.6175C27.6003 19.08 26.1729 20.6478 24.6753 22.1688C23.1777 23.6898 21.6556 25.2459 20.1357 26.7903C18.5785 28.3113 17.0341 29.8323 15.5131 31.3299C14.7537 32.067 14.0049 32.8041 13.2678 33.5295C12.5892 34.2432 11.9212 34.9569 11.2906 35.7174C10.0742 37.1666 8.93388 38.678 7.87417 40.2453C6.87967 41.7546 6.02557 43.2522 5.27677 44.6562C4.08782 46.9568 3.07104 49.3424 2.23479 51.7932C1.94228 52.6941 1.68371 53.4078 1.54331 53.8992C1.43957 54.2619 1.36936 54.4959 1.3327 54.6012C2.7375 45.7113 6.92901 37.4971 13.3029 31.1427L43.4199 1.02698Z" fill="white"/>
</g>
<g style="mix-blend-mode:multiply" opacity="0.25">
<path d="M77.4787 89.9284L77.5021 90.0103L76.9054 90.6304L76.8352 90.7005L77.1628 89.0157L77.4787 89.9284Z" fill="black"/>
</g>
<g style="mix-blend-mode:multiply" opacity="0.25">
<path d="M75.5467 89.5773C74.95 90.2442 74.3428 90.8994 73.6993 91.5429C67.7579 97.4753 60.2023 101.528 51.9737 103.197C43.7452 104.865 35.2076 104.076 27.4247 100.926C31.5778 102.268 35.8986 103.02 40.2607 103.161C41.3488 103.196 42.4241 103.173 43.5016 103.138C44.5546 103.079 45.6895 103.021 46.7191 102.88C47.7721 102.787 48.8368 102.588 49.8887 102.4C50.9311 102.19 51.9724 101.956 53.0125 101.687C54.0316 101.394 55.06 101.125 56.0674 100.751C57.0736 100.411 58.0564 99.9903 59.0263 99.5925C59.9986 99.1362 60.958 98.715 61.894 98.2119C62.8417 97.7439 63.7543 97.1823 64.654 96.6441C65.5561 96.0708 66.4336 95.4858 67.2748 94.854C68.1161 94.2222 68.9491 93.567 69.7564 92.8767L70.9486 91.8354L72.0847 90.7356L72.3772 90.4665L72.4813 90.3612L72.6217 90.2091L73.1845 89.6124L74.1907 88.5243L74.2609 88.4424C74.4586 88.185 74.6575 87.9393 74.8576 87.6819C75.5245 86.8512 76.1914 86.0322 76.8232 85.1898C77.5486 84.0198 78.3442 82.8849 79.0345 81.6915C79.6534 80.463 80.3788 79.2813 80.9182 78.0177L81.7009 76.0989L82.0999 75.1395C82.2169 74.8236 82.3105 74.4843 82.4146 74.1567C82.8668 72.8509 83.2379 71.5185 83.5261 70.167L83.959 68.1429C84.0967 67.4663 84.1982 66.7828 84.2632 66.0954L84.5218 64.0362C84.5686 63.3459 84.5686 62.6439 84.6025 61.9536C84.6142 61.2633 84.6739 60.573 84.6505 59.871L84.5218 57.8001C84.4657 56.4073 84.3171 55.0197 84.0772 53.6466L83.9368 52.617C83.8666 52.2777 83.7847 51.9384 83.7028 51.5991L83.2219 49.5633C83.0644 48.8811 82.8655 48.209 82.6264 47.5509L81.97 45.5502C81.502 44.2398 80.8819 42.9762 80.3449 41.6775L78.3313 37.9569C77.5357 36.7869 76.7647 35.5935 75.9457 34.4352C75.0436 33.3354 74.1661 32.2122 73.243 31.1124L70.3999 27.8481L73.6993 31.1475C81.3751 38.8283 85.8381 49.1436 86.1812 59.9969C86.5243 70.8502 82.722 81.4269 75.5467 89.5773Z" fill="black"/>
</g>
</g>
<path d="M9.27794 73.5031L8.46882 72.0677L16.0372 70.6836L17.0102 72.4097L11.9058 78.165L11.0967 76.7296L15.0899 72.3875L15.062 72.338L9.27794 73.5031ZM11.7176 72.0097L13.6288 75.4001L12.5832 75.9895L10.672 72.5991L11.7176 72.0097Z" fill="white"/>
<path d="M12.7751 78.7433L16.9704 75.2574L20.0183 78.9256L15.823 82.4115L14.8993 81.2998L18.1797 78.5742L16.9678 77.1157L13.6874 79.8413L12.7751 78.7433Z" fill="white"/>
<path d="M15.9128 85.0702L20.773 79.3581L21.9089 80.3246L21.3152 81.0224L21.3666 81.0661C21.5122 80.9973 21.6819 80.9458 21.8756 80.9117C22.0727 80.8774 22.2818 80.8874 22.5028 80.9418C22.7272 80.996 22.9557 81.122 23.1883 81.3199C23.4912 81.5776 23.7031 81.8948 23.8242 82.2713C23.9467 82.646 23.9496 83.0572 23.8329 83.505C23.7177 83.9509 23.4575 84.4119 23.0525 84.8879C22.6582 85.3513 22.2505 85.6789 21.8293 85.8707C21.4114 86.0622 21.0047 86.1311 20.609 86.0773C20.2167 86.0233 19.8628 85.862 19.5473 85.5935C19.3237 85.4033 19.1649 85.2045 19.071 84.9971C18.9788 84.7912 18.9307 84.5902 18.9266 84.394C18.9241 84.1961 18.9458 84.0171 18.9917 83.8573L18.9566 83.8273L17.0649 86.0505L15.9128 85.0702ZM20.1335 82.3948C19.9233 82.6419 19.7742 82.8865 19.6862 83.1287C19.5983 83.3709 19.5755 83.5986 19.6178 83.8118C19.6618 84.0233 19.7766 84.208 19.9623 84.366C20.1498 84.5256 20.3522 84.6092 20.5695 84.6169C20.7883 84.6228 21.0093 84.5621 21.2325 84.435C21.459 84.3076 21.6751 84.1231 21.8806 83.8814C22.0847 83.6416 22.2308 83.4023 22.3191 83.1634C22.4073 82.9246 22.4302 82.6985 22.3879 82.4853C22.3455 82.272 22.2296 82.0849 22.0403 81.9238C21.8528 81.7642 21.6519 81.6788 21.4377 81.6675C21.2253 81.6578 21.0074 81.7148 20.7839 81.8386C20.5605 81.9624 20.3437 82.1478 20.1335 82.3948Z" fill="white"/>
<path d="M25.1471 86.7616L28.58 84.7529L29.8706 85.5004L27.1367 90.2204L25.8891 89.4978L27.6281 86.4956L24.196 88.5171L22.8961 87.7642L25.63 83.0442L26.8807 83.7686L25.1471 86.7616Z" fill="white"/>
<path d="M31.5069 91.8681C30.9878 91.6816 30.5785 91.41 30.279 91.0533C29.9826 90.6952 29.8031 90.281 29.7407 89.8108C29.679 89.3383 29.7427 88.8392 29.9316 88.3134C30.1222 87.7832 30.3912 87.3566 30.7387 87.0337C31.087 86.7085 31.489 86.5033 31.9448 86.4181C32.4036 86.3314 32.8926 86.3813 33.4117 86.5679C33.9308 86.7544 34.3386 87.0268 34.635 87.3849C34.9345 87.7415 35.1151 88.1561 35.1767 88.6286C35.2392 89.0988 35.1751 89.599 34.9846 90.1293C34.7956 90.6551 34.527 91.0805 34.1787 91.4057C33.8312 91.7286 33.4281 91.9334 32.9693 92.0201C32.5135 92.1053 32.026 92.0547 31.5069 91.8681ZM31.9099 90.7677C32.1461 90.8526 32.3673 90.8566 32.5735 90.7798C32.7805 90.7007 32.9662 90.5586 33.1305 90.3535C33.297 90.1492 33.4339 89.8978 33.5411 89.5992C33.6484 89.3007 33.7029 89.0196 33.7045 88.7561C33.7084 88.4933 33.6557 88.2656 33.5463 88.0728C33.437 87.8801 33.2642 87.7413 33.0281 87.6564C32.7897 87.5707 32.5647 87.5666 32.3533 87.6441C32.144 87.7223 31.9561 87.8636 31.7896 88.0679C31.6254 88.273 31.4896 88.5249 31.3823 88.8234C31.275 89.1219 31.2194 89.4026 31.2156 89.6653C31.2139 89.9289 31.2689 90.1575 31.3805 90.351C31.4951 90.5431 31.6716 90.682 31.9099 90.7677Z" fill="white"/>
<path d="M35.6807 94.9382L36.9126 87.54L38.3838 87.785L38.2333 88.6888L38.2998 88.6998C38.3893 88.5659 38.5084 88.4346 38.6571 88.3057C38.8085 88.1749 38.9929 88.076 39.2105 88.0091C39.4307 87.9401 39.6915 87.9308 39.9928 87.9809C40.3851 88.0463 40.7299 88.2093 41.0273 88.47C41.3251 88.7284 41.539 89.0796 41.6691 89.5237C41.7995 89.9654 41.8134 90.4945 41.7108 91.111C41.6108 91.7112 41.4295 92.2018 41.1669 92.5829C40.907 92.962 40.5935 93.2302 40.2265 93.3875C39.8622 93.5428 39.4758 93.5865 39.0671 93.5184C38.7775 93.4702 38.5391 93.3813 38.3519 93.2517C38.167 93.1226 38.0224 92.9749 37.9181 92.8087C37.8141 92.6402 37.7407 92.4756 37.6979 92.3148L37.6524 92.3073L37.1729 95.1866L35.6807 94.9382ZM37.9253 90.4735C37.872 90.7934 37.8699 91.0799 37.919 91.3329C37.9681 91.5858 38.0656 91.7929 38.2116 91.954C38.358 92.1127 38.5514 92.2122 38.7919 92.2522C39.0348 92.2927 39.2514 92.2603 39.4417 92.1552C39.6324 92.0478 39.7908 91.8821 39.9168 91.6583C40.0456 91.4326 40.1361 91.1632 40.1882 90.8503C40.2399 90.5397 40.2422 90.2593 40.1951 90.009C40.1479 89.7588 40.0514 89.5531 39.9054 89.392C39.7594 89.2309 39.5638 89.1299 39.3186 89.0891C39.0758 89.0486 38.8596 89.0786 38.67 89.1791C38.4829 89.2799 38.3252 89.4409 38.1972 89.662C38.0692 89.8831 37.9786 90.1536 37.9253 90.4735Z" fill="white"/>
<path d="M44.4706 91.6412L46.3823 88.1533L47.8736 88.131L47.9554 93.5849L46.5138 93.6065L46.4618 90.1374L44.5573 93.6359L43.0554 93.6584L42.9736 88.2045L44.4187 88.1828L44.4706 91.6412Z" fill="white"/>
<path d="M52.551 92.7513C52.0098 92.8582 51.5191 92.8356 51.0789 92.6837C50.6405 92.5289 50.2736 92.266 49.9783 91.8948C49.6825 91.5212 49.4805 91.0604 49.3722 90.5123C49.2631 89.9595 49.2745 89.4553 49.4065 88.9997C49.5381 88.5417 49.7774 88.159 50.1245 87.8516C50.4735 87.5414 50.9185 87.3328 51.4597 87.2259C52.0008 87.119 52.4906 87.1429 52.929 87.2977C53.3692 87.4496 53.7372 87.7124 54.033 88.0859C54.3284 88.4571 54.5306 88.9191 54.6398 89.4719C54.7481 90.02 54.7364 90.523 54.6048 90.981C54.4728 91.4366 54.2323 91.8195 53.8834 92.1298C53.5363 92.4372 53.0921 92.6444 52.551 92.7513ZM52.3309 91.6002C52.5771 91.5516 52.7689 91.4413 52.9062 91.2694C53.0432 91.0952 53.1293 90.8778 53.1648 90.6175C53.2025 90.3566 53.1907 90.0706 53.1292 89.7594C53.0678 89.4481 52.97 89.1791 52.8359 88.9522C52.7041 88.7248 52.5418 88.5566 52.3489 88.4475C52.156 88.3384 51.9365 88.3082 51.6903 88.3568C51.4418 88.4059 51.2467 88.518 51.1052 88.6931C50.9659 88.8679 50.8774 89.0856 50.8396 89.3465C50.8042 89.6068 50.8172 89.8926 50.8787 90.2039C50.9401 90.5151 51.0368 90.7844 51.1685 91.0117C51.3026 91.2386 51.4673 91.4064 51.6625 91.5151C51.8596 91.6209 52.0824 91.6493 52.3309 91.6002Z" fill="white"/>
<path d="M57.574 88.9489L58.1344 85.0112L59.5222 84.4649L61.5201 89.5404L60.1785 90.0684L58.9077 86.8401L58.3578 90.7851L56.9601 91.3353L54.9622 86.2598L56.3071 85.7304L57.574 88.9489Z" fill="white"/>
<path d="M63.1051 88.5178L62.4665 87.5014L62.6205 87.4059C62.7291 87.3386 62.8065 87.2544 62.8525 87.1535C62.8993 87.0492 62.9114 86.9205 62.8889 86.7674C62.8664 86.6142 62.8084 86.4287 62.7151 86.2108C62.6205 85.9909 62.4872 85.7309 62.3151 85.4309L61.1181 83.3318L64.6433 81.1462L67.5175 85.782L66.2922 86.5417L64.0448 82.917L62.901 83.6262L63.7061 85.0866C63.9288 85.4861 64.0886 85.8495 64.1855 86.1765C64.2845 86.5024 64.3231 86.796 64.3013 87.0574C64.2783 87.3168 64.1994 87.5468 64.0647 87.7473C63.93 87.9478 63.7389 88.1248 63.4914 88.2782L63.1051 88.5178Z" fill="white"/>
<path d="M66.0693 81.2898L65.2782 80.4013L68.97 77.1141L69.7611 78.0025L68.4483 79.1715L71.2845 82.3567L70.2077 83.3155L67.3715 80.1303L66.0693 81.2898Z" fill="white"/>
<path d="M75.3467 77.7981C75.0038 78.2302 74.6155 78.531 74.1817 78.7006C73.7476 78.8669 73.2978 78.9043 72.8323 78.813C72.3649 78.7202 71.9124 78.5001 71.4748 78.1528C71.0334 77.8026 70.7154 77.4112 70.5207 76.9786C70.3241 76.5446 70.2584 76.098 70.3235 75.6389C70.3882 75.1765 70.592 74.7292 70.9349 74.2972C71.2778 73.8651 71.6663 73.5659 72.1005 73.3996C72.5342 73.2301 72.9848 73.1917 73.4521 73.2845C73.9176 73.3758 74.371 73.5966 74.8124 73.9469C75.2501 74.2942 75.5672 74.6848 75.7637 75.1189C75.9584 75.5514 76.0234 75.9989 75.9587 76.4613C75.8936 76.9204 75.6896 77.366 75.3467 77.7981ZM74.4332 77.0641C74.5891 76.8675 74.6637 76.6593 74.657 76.4393C74.6483 76.2179 74.5731 75.9965 74.4314 75.7752C74.2911 75.5521 74.0967 75.3419 73.8482 75.1447C73.5997 74.9475 73.3509 74.806 73.1017 74.7201C72.854 74.6323 72.6214 74.6094 72.4038 74.6513C72.1862 74.6932 71.9994 74.8124 71.8434 75.009C71.6859 75.2074 71.61 75.4192 71.6157 75.6444C71.6229 75.8676 71.6966 76.0909 71.8369 76.314C71.9786 76.5353 72.1738 76.7445 72.4222 76.9417C72.6707 77.1389 72.9188 77.2814 73.1665 77.3691C73.4157 77.455 73.6498 77.4761 73.8689 77.4324C74.0876 77.3853 74.2757 77.2625 74.4332 77.0641Z" fill="white"/>
<path d="M77.7598 73.8968L72.9685 71.29L75.2478 67.1007L80.0391 69.7076L79.3483 70.9772L75.602 68.9388L74.6957 70.6045L78.442 72.6429L77.7598 73.8968Z" fill="white"/>
</svg>
