<svg width="473" height="381" viewBox="0 0 473 381" fill="none" xmlns="http://www.w3.org/2000/svg">
<path d="M138.567 0.323666C132.676 0.819744 122.693 2.61802 117.918 3.98223C111.407 5.90452 107.252 8.01285 105.144 10.4312L103.532 12.4155V24.5074V36.5992L105.454 39.0796C109.113 43.6683 118.91 47.5129 132.056 49.4972C138.505 50.4894 142.536 50.6134 155.93 50.4894C170.564 50.3033 172.734 50.1173 179.741 48.6291C192.701 45.8387 201.135 41.684 202.809 37.3433C203.057 36.5372 203.801 35.8551 204.359 35.8551C205.103 35.8551 205.227 35.6071 204.855 34.7389C204.545 34.1809 204.235 28.724 204.111 22.6471L203.925 11.6714L201.879 9.56308C199.15 6.83467 195.678 5.22242 188.485 3.36213C178.067 0.571705 170.936 -0.110401 155.372 0.0136185C147.496 0.0756302 139.931 0.199646 138.567 0.323666ZM177.695 9.74911C189.539 11.9815 196.856 14.9579 196.856 17.6243C196.856 20.1047 186.19 23.8253 175.773 24.9414C174.409 25.1275 171.618 25.4375 169.572 25.6856C167.526 25.9336 159.588 26.0576 151.961 25.9956C138.257 25.9336 130.63 25.1895 121.577 23.0812C117.298 22.151 110.911 19.1746 110.539 18.0584C110.043 16.6942 113.825 14.1518 118.662 12.6636C122.879 11.2994 131.746 9.43906 139.187 8.3229C140.241 8.19888 147.745 8.13686 155.93 8.26088C167.712 8.44691 172.238 8.75696 177.695 9.74911Z" fill="#032AB8"/>
<path d="M202.747 47.2028C196.794 52.5357 185.508 55.9462 168.704 57.5584C148.613 59.4807 123.747 56.8763 111.593 51.5435C109.733 50.7374 106.756 48.9391 104.958 47.5129C101.733 45.0325 99.8111 44.4744 102.291 46.7068C103.47 47.7609 103.532 48.5671 103.532 68.038V88.3152L105.888 90.6715C108.989 93.958 115.934 97.0585 124.243 98.8568C129.948 100.159 133.482 100.469 144.644 100.779L158.1 101.151V89.8654V78.6417H181.044H203.987V63.3253C203.987 48.6911 204.049 47.947 205.289 46.6448C207.584 44.2264 205.599 44.5984 202.747 47.2028Z" fill="#032AB8"/>
<path d="M250.494 93.4621C250.494 96.8106 250.68 100.841 250.866 102.453L251.3 105.306H261.408H271.577V99.167C271.577 95.8185 271.763 91.7878 271.949 90.1756L272.383 87.3231H261.408H250.494V93.4621Z" fill="#032AB8"/>
<path d="M279.887 89.2454C280.073 90.2996 280.259 94.3922 280.259 98.2368V105.306H290.49H300.722V97.3067C300.722 92.904 300.908 88.8734 301.094 88.3153C301.404 87.4472 300.226 87.3231 290.49 87.3231H279.515L279.887 89.2454Z" fill="#032AB8"/>
<path d="M205.103 88.3773L202.127 88.6254V121.118V153.611L210.56 153.797C215.211 153.921 219.118 153.859 219.242 153.735C219.366 153.611 219.49 138.729 219.49 120.684V87.9433L213.785 88.0673C210.622 88.1293 206.716 88.2533 205.103 88.3773Z" fill="#032AB8"/>
<path d="M178.129 92.0979L169.882 92.3459V122.979V153.611L182.594 153.797L195.306 153.983V122.793V91.6638L190.841 91.7879C188.361 91.8499 182.594 92.0359 178.129 92.0979Z" fill="#032AB8"/>
<path d="M101.051 96.2525C101.051 96.7486 101.609 97.4927 102.291 97.8647C103.47 98.4848 103.532 99.1669 103.532 107.848C103.532 116.344 103.656 117.46 104.896 119.63C107.376 124.095 114.383 127.319 127.405 130.11C132.056 131.102 136.645 131.536 145.884 131.784L158.1 132.156V120.622V109.15L154.565 108.778C152.581 108.592 148.303 108.468 145.078 108.468C138.877 108.468 128.583 107.228 121.142 105.678C113.267 104.004 107.128 101.151 103.098 97.2446C101.671 95.9425 101.051 95.6324 101.051 96.2525Z" fill="#032AB8"/>
<path d="M226.311 130.668V153.611L234.558 153.797C239.022 153.921 242.805 153.983 242.867 153.983C242.929 153.983 243.177 143.566 243.425 130.854L243.859 107.786H235.116H226.311V130.668Z" fill="#032AB8"/>
<path d="M309.403 117.088V126.389H319.325H329.246V117.088V107.786H319.325H309.403V117.088Z" fill="#032AB8"/>
<path d="M251.114 112.747C251.052 112.933 250.99 122.173 250.928 133.334L250.804 153.611L261.222 153.797L271.577 153.983L271.701 135.815C271.763 125.893 271.825 116.53 271.887 115.041V112.437H261.532C255.765 112.437 251.114 112.561 251.114 112.747Z" fill="#032AB8"/>
<path d="M280.197 112.685C279.949 113.677 280.011 148.093 280.197 148.093C280.321 148.093 281.747 146.914 283.297 145.426C284.91 144 287.824 141.396 289.87 139.721C291.855 137.985 295.141 135.133 297.125 133.272L300.722 129.924V121.118V112.313L290.49 112.375C284.848 112.375 280.197 112.499 280.197 112.685Z" fill="#032AB8"/>
<path d="M427.78 133.458C427.656 133.582 423.625 133.892 418.85 134.078C414.075 134.326 406.572 134.76 402.108 135.07C397.705 135.38 390.45 135.815 385.985 136.001C381.582 136.187 374.885 136.621 371.103 136.931C367.382 137.241 361.367 137.489 357.895 137.489C354.36 137.551 351.26 137.675 351.012 137.799C350.764 137.985 343.633 138.419 335.075 138.791C326.58 139.163 317.589 139.535 315.108 139.659L310.644 139.907L297.684 150.759C290.615 156.65 283.297 162.665 281.437 164.091L278.027 166.633L223.086 166.819L168.084 167.005L166.347 168.68L164.611 170.354L111.903 170.54L59.195 170.726L59.381 172.896C60.2492 182.694 66.8222 195.22 75.1935 203.095C79.8442 207.374 87.5954 212.706 91.564 214.195C93.0522 214.753 94.2304 215.435 94.2304 215.621C94.2304 216.799 66.3261 226.472 56.7146 228.643C32.965 233.914 13.0599 232.673 3.32444 225.232C1.03009 223.434 0.472004 223.248 0.161957 224.116C-0.520148 225.914 1.0921 239.494 2.3943 242.967C7.10702 255.369 17.0906 261.508 32.5309 261.57C46.5451 261.57 76.3096 251.834 119.344 233.045C135.281 226.1 155.372 218.101 167.402 213.885C196.794 203.653 224.574 199.002 251.363 199.808C267.919 200.304 270.523 200.49 281.499 202.103C311.078 206.257 337.494 215.497 372.715 234.038C405.828 251.462 421.145 257.911 435.221 260.578C441.67 261.818 445.142 261.818 450.723 260.64C456.738 259.399 460.397 257.353 464.303 253.261C468.148 249.168 470.194 245.075 471.496 238.502C472.364 234.224 472.922 223.744 472.24 223.744C472.116 223.744 470.504 224.736 468.706 225.914C456.924 233.666 435.407 233.852 408.309 226.534C398.387 223.806 380.714 218.039 374.637 215.559L370.111 213.698L370.545 211.094C371.723 203.839 376.064 193.917 381.706 185.36C384.745 180.771 385.365 179.903 389.272 174.694C394.418 167.873 413.331 148.278 424.741 137.985C427.656 135.38 429.578 133.21 429.02 133.21C428.462 133.21 427.904 133.334 427.78 133.458ZM350.33 159.192C351.198 159.812 352.5 161.238 353.306 162.417C355.725 165.951 354.298 171.036 350.144 173.516C342.889 177.981 334.083 169.238 338.548 161.983C341.152 157.828 346.547 156.588 350.33 159.192Z" fill="#032AB8"/>
<path d="M58.9468 151.193L59.1328 159.874H68.5582H77.9217L78.3557 157.022C78.5418 155.41 78.7278 151.503 78.7278 148.34V142.512H68.7443H58.8228L58.9468 151.193Z" fill="#032AB8"/>
<path d="M86.8511 151.193L86.7271 159.874H96.8346H106.942V151.317V142.822L96.9586 142.636L86.9751 142.512L86.8511 151.193Z" fill="#032AB8"/>
<path d="M115.934 151.317V160.184L125.669 160.06L135.467 159.936V151.379V142.822L125.731 142.636L115.934 142.45V151.317Z" fill="#032AB8"/>
<path d="M144.52 151.193L144.582 159.874H151.279H158.038L158.224 151.193L158.41 142.512H151.403H144.396L144.52 151.193Z" fill="#032AB8"/>
<path d="M236.542 214.877C234.248 215.063 225.381 216.055 220.11 216.675C213.847 217.481 202.809 219.713 194.19 221.946C171.618 227.713 153.077 234.906 124.305 248.858C97.2689 262.004 92.3082 264.36 81.7665 269.011C62.4816 277.568 54.6684 279.801 43.6927 279.801C36.4376 279.801 30.7947 278.436 27.1361 275.77C26.206 275.15 25.2759 274.592 25.0898 274.592C24.9038 274.592 24.7798 276.824 24.7798 279.615C24.7798 284.761 25.958 290.714 27.6942 294.125C29.4925 297.721 33.5851 302.434 36.1895 303.984C45.3669 309.379 56.4666 308.449 76.7438 300.636C95.2846 293.505 106.136 288.544 137.017 273.042C168.022 257.539 179.121 252.268 191.461 247.37C238.465 228.643 286.398 223.992 330.549 233.976C338.672 235.774 352.562 239.804 359.569 242.285C362.484 243.339 364.964 244.083 365.088 243.959C365.336 243.649 353.864 237.51 349.09 235.34C330.549 226.968 311.45 220.706 297.002 218.225C279.205 215.249 251.177 213.636 236.542 214.877Z" fill="#032AB8"/>
<path d="M277.096 243.835C276.972 243.959 272.693 244.207 267.547 244.455C262.462 244.703 257.129 245.013 255.765 245.137C234.93 247.556 218.249 251.586 199.956 258.78C189.911 262.748 184.764 265.166 170.378 272.546C168.393 273.6 167.215 275.026 168.89 274.406C169.51 274.158 170.688 273.786 171.494 273.6C172.3 273.414 172.796 272.98 172.61 272.67C172.424 272.298 173.044 272.236 174.036 272.422C175.091 272.608 179.555 271.677 185.384 270.003C211.614 262.686 227.427 260.392 252.354 260.33C296.691 260.33 325.65 266.841 367.196 286.126C407.75 304.977 413.889 307.147 426.291 307.085C432.43 307.023 434.352 306.775 437.267 305.659C446.568 302.062 452.645 291.583 452.645 279.305C452.645 276.7 452.521 274.592 452.397 274.592C452.211 274.592 451.157 275.15 449.979 275.832C443.778 279.491 434.042 281.227 425.113 280.235C414.013 278.995 408.246 277.072 379.164 265.291C347.725 252.455 328.254 247.122 303.574 244.579C295.389 243.711 277.778 243.215 277.096 243.835Z" fill="#032AB8"/>
<path d="M230.341 273.972C227.302 274.22 222.404 274.592 219.489 274.778C203.801 275.832 181.229 280.731 165.231 286.56C150.287 292.079 145.326 294.001 133.234 299.272C97.9506 314.526 92.4318 316.51 75.3171 319.797C71.5966 320.541 67.1319 321.409 65.5196 321.719C63.8454 322.091 62.1711 322.153 61.7991 321.967C61.303 321.657 61.241 321.781 61.675 322.215C63.7214 324.448 77.4875 326.122 86.7889 325.378C98.8807 324.324 102.291 323.393 136.086 311.798C174.47 298.652 209.444 294.001 246.587 297.225C265.252 298.9 278.46 301.256 309.713 308.697C319.635 311.054 333.091 314.278 339.726 315.828C362.607 321.285 386.543 325.44 394.666 325.44C400.743 325.44 411.409 324.076 414.757 322.897C416.804 322.153 416.742 322.153 407.936 319.239C395.72 315.208 393.364 314.278 373.893 305.473C344.376 292.079 327.386 285.692 308.535 281.041C297.869 278.437 280.073 275.522 269.717 274.654C258.927 273.786 237.038 273.414 230.341 273.972Z" fill="#032AB8"/>
<path d="M202.747 310.991C177.943 312.604 158.906 316.2 138.877 323.145C127.033 327.176 107.252 335.361 107.252 336.105C107.252 336.725 115.81 343.112 121.515 346.833C141.048 359.483 161.201 368.412 183.028 374.055C202.437 379.078 232.326 381.992 250.432 380.69C293.653 377.404 328.316 365.126 362.608 341.004C365.77 338.772 368.188 336.911 368.126 336.787C367.94 336.601 362.36 335.423 347.849 332.509C343.571 331.641 331.293 328.912 320.565 326.37C293.529 319.983 294.211 320.169 281.809 317.688C268.849 315.146 254.463 312.728 246.464 311.798C240.883 311.177 209.196 310.557 202.747 310.991ZM177.695 329.16C181.726 336.539 188.609 336.539 192.64 329.16C193.632 327.486 194.562 326.06 194.748 326.06C194.934 326.06 195.616 327.176 196.236 328.478C198.158 332.819 202.189 335.671 205.289 334.927C207.77 334.307 210.684 331.765 211.49 329.47C211.925 328.292 212.483 327.3 212.669 327.3C212.917 327.3 213.599 328.416 214.219 329.78C215.459 332.509 215.149 336.229 213.475 339.144C210.746 343.732 202.747 344.849 198.096 341.314C196.856 340.322 195.616 339.02 195.368 338.338C194.934 337.159 194.81 337.283 193.57 339.33C190.345 344.849 180.734 344.787 176.951 339.268L175.711 337.407L174.285 339.516C172.61 342.12 169.696 343.422 165.665 343.422C158.472 343.422 153.76 336.167 156.55 329.532L157.604 327.114L158.72 329.594C161.325 335.485 168.208 336.539 172.238 331.641C172.672 331.145 173.541 329.656 174.223 328.354C174.905 327.114 175.587 326.06 175.773 326.06C175.897 326.06 176.765 327.486 177.695 329.16ZM269.345 345.221C271.764 346.771 273.5 346.833 275.794 345.655C277.965 344.539 279.825 342.43 281.313 339.454L282.553 337.035L284.848 340.508C289.622 348.011 296.257 348.569 299.73 341.748L301.156 338.834L302.272 340.508C304.009 343.174 304.195 347.143 302.706 350.057C301.218 352.848 299.606 354.15 295.885 355.266C291.545 356.568 286.584 354.336 283.918 349.995C282.925 348.383 282.739 348.259 282.739 349.375C282.739 350.74 280.321 353.282 277.841 354.584C275.732 355.638 270.896 355.514 268.601 354.336C267.547 353.778 265.935 352.414 265.005 351.236L263.33 349.127L262.028 351.112C260.168 353.902 255.827 355.948 252.541 355.638C246.216 354.956 242.185 350.678 242.619 344.973C242.743 343.236 243.363 341.066 243.983 340.074L245.162 338.338L245.968 340.694C247.022 343.67 248.882 345.655 251.487 346.523C253.161 347.081 253.905 347.019 255.951 345.965C258.804 344.539 260.292 342.802 261.904 339.144L263.082 336.601L265.191 340.26C266.369 342.368 268.167 344.477 269.345 345.221Z" fill="#032AB8"/>
</svg>
